<?xml version="1.0" encoding="UTF-8" standalone="no"?>
<!-- Created with Inkscape (http://www.inkscape.org/) -->

<svg
   version="1.1"
   id="svg59"
   width="886.66669"
   height="920"
   viewBox="0 0 886.66669 920"
   sodipodi:docname="logo_1.svg"
   inkscape:version="1.2.2 (732a01da63, 2022-12-09)"
   xmlns:inkscape="http://www.inkscape.org/namespaces/inkscape"
   xmlns:sodipodi="http://sodipodi.sourceforge.net/DTD/sodipodi-0.dtd"
   xmlns="http://www.w3.org/2000/svg"
   xmlns:svg="http://www.w3.org/2000/svg">
  <defs
     id="defs63" />
  <sodipodi:namedview
     id="namedview61"
     pagecolor="#ffffff"
     bordercolor="#000000"
     borderopacity="0.25"
     inkscape:showpageshadow="2"
     inkscape:pageopacity="0.0"
     inkscape:pagecheckerboard="0"
     inkscape:deskcolor="#d1d1d1"
     showgrid="false"
     inkscape:zoom="1.276087"
     inkscape:cx="417.68313"
     inkscape:cy="389.47189"
     inkscape:window-width="2560"
     inkscape:window-height="1377"
     inkscape:window-x="-8"
     inkscape:window-y="-8"
     inkscape:window-maximized="1"
     inkscape:current-layer="g285" />
  <g
     inkscape:groupmode="layer"
     inkscape:label="Image"
     id="g65">
    <g
       id="g285"
       transform="translate(6.2691683,3.1345829)">
      <path
         style="fill:#f39f24;stroke-width:1.33333"
         d="m 641.33335,915.15439 c -58.23892,-5.22714 -90.96907,-12.87504 -143.33334,-33.49211 -17.38072,-6.8432 -54.00744,-25.00776 -65.78389,-32.62469 -1.95219,-1.26267 -5.64944,-3.4505 -8.21611,-4.86183 -6.37796,-3.50705 -37.51611,-25.70339 -47.33333,-33.74081 -4.4,-3.60232 -13.63564,-11.77386 -20.52366,-18.15898 -6.888,-6.38512 -13.55644,-12.3362 -14.81874,-13.22462 -4.11598,-2.89687 -28.62818,-31.43676 -37.07341,-43.16507 -10.51354,-14.60071 -19.8087,-30.07787 -27.51432,-45.81351 -3.34642,-6.83373 -6.99553,-13.18114 -8.10914,-14.10536 -1.39486,-1.15762 -4.6072,-1.4417 -10.32607,-0.91314 -16.24924,1.50181 -32.81745,-5.07666 -38.84371,-15.42304 -3.72533,-6.39598 -6.31198,-13.27407 -13.90128,-36.96456 -6.03938,-18.85236 -38.55636,-121.55975 -40.09971,-126.65806 -0.78296,-2.58642 -3.05498,-4.08918 -10.23154,-6.76729 C 136.71314,482.33311 129.27578,477.17444 121.7176,466 c -3.42679,-5.06636 -6.01048,-14.16991 -10.2172,-36 -8.85583,-45.95595 -12.851747,-78.19335 -13.110083,-105.76683 -0.179856,-19.19694 -0.100213,-19.7769 4.216653,-30.70641 3.49333,-8.84443 5.94471,-12.69177 11.89651,-18.67108 4.12309,-4.14213 9.89652,-8.77583 12.82986,-10.29708 2.93333,-1.52125 5.22568,-3.61927 5.09412,-4.66225 -0.13158,-1.04299 -1.71481,-6.09635 -3.51831,-11.22968 -1.8035,-5.13334 -3.05928,-9.70432 -2.79062,-10.15774 0.26866,-0.45342 4.25189,-1.24482 8.85163,-1.75868 17.85456,-1.99457 41.70486,-12.13272 52.52215,-22.32581 8.64919,-8.15008 12.95226,-14.46065 17.56374,-25.75777 2.79666,-6.8512 3.35449,-10.77627 3.88464,-27.33334 0.53041,-16.56604 0.2498,-20.4983 -1.96051,-27.47224 -3.48205,-10.98656 -10.83563,-21.71275 -23.766,-34.66597 C 162.21588,78.159745 138.80022,65.82766 103.33334,57.125097 93.004138,54.590607 87.620441,54.17814 64.666668,54.162688 42.300756,54.147632 35.80212,54.612552 24.372121,57.045405 16.876786,58.640773 9.8935724,59.619643 8.8538681,59.220671 6.6156294,58.361779 2.6699133,48.63882 2.659011,43.955423 2.6548003,42.146607 3.6419596,34.191131 4.8526983,26.276587 6.418742,16.039429 7.671535,11.567082 9.1936874,10.779684 10.370493,10.170931 18.233334,8.71015 26.666667,7.5335032 110.71079,-4.1926135 168.28818,5.8038164 212.59125,39.813229 218.93446,44.68262 226.11333,50.166667 228.54426,52 c 2.43095,1.833333 10.94221,10.833333 18.91393,20 7.97172,9.166667 14.85272,16.966667 15.29111,17.333333 0.4384,0.366667 4.81915,6.543112 9.735,13.725437 17.61116,25.73084 19.52629,28.30562 25.51571,34.30432 2.73504,2.7393 11.73817,9.30358 12.76016,9.30358 0.58308,0 1.441,1.2 1.9065,2.66666 0.46551,1.46667 1.75976,2.66667 2.87614,2.66667 1.11636,0 3.02593,1.13244 4.24348,2.51655 4.11435,4.67714 9.80275,5.51334 23.50892,3.45584 20.32163,-3.05059 36.05549,-11.8888 47.09901,-26.45699 4.28602,-5.65394 7.36424,-3.92737 6.24963,3.50541 -0.71012,4.73539 -0.38845,6.13035 1.88887,8.1913 3.77726,3.41837 8.13396,15.65076 8.13396,22.8379 V 172 l 11,0.008 c 15.45014,0.0107 20.16461,1.64992 28.38616,9.87147 5.53537,5.53537 8.95828,11.07653 16.6046,26.88025 8.46029,17.48611 20.01839,42.70032 30.21172,65.90751 1.77157,4.03333 3.77927,8.53333 4.46153,10 0.68228,1.46666 4.91035,11.36666 9.39574,22 11.94417,28.31566 16.96149,35.10838 31.27358,42.33994 11.08266,5.59979 14.3443,5.82536 31.84838,2.2026 8.8834,-1.83856 21.25163,-3.9747 27.48496,-4.74697 11.0402,-1.36781 40.65112,-0.92224 42.20849,0.63515 1.29671,1.29669 -0.61134,6.8084 -4.17469,12.05929 -1.85192,2.72896 -3.36713,5.63785 -3.36713,6.46421 0,0.82636 -0.8231,2.44971 -1.82908,3.60746 -6.0607,6.97489 -16.60799,33.61702 -23.40442,59.11877 -5.35809,20.10483 -5.97454,43.15836 -1.58278,59.19248 3.9512,14.42565 15.40104,33.71269 27.16768,45.76344 12.44445,12.74492 24.12509,18.50035 39.33336,19.38076 10.67894,0.61821 11.74798,0.39344 34.72937,-7.30223 28.98611,-9.70644 38.03738,-11.21696 62.25254,-10.38906 20.48432,0.70034 24.56584,1.71341 43.03529,10.68164 12.49166,6.06558 26.83178,18.39625 33.52567,28.82778 4.61889,7.19794 8.65525,23.25884 7.33371,29.18131 -1.49688,6.70823 -5.03442,15.61688 -7.47718,18.82991 -3.38593,4.45362 -3.02898,7.06876 1.56566,11.4707 5.38349,5.15772 12.40282,17.21698 14.75517,25.34948 1.17405,4.05895 1.8578,11.75351 1.74801,19.67126 -0.21434,15.45665 -2.8102,23.22213 -12.74434,38.12456 -4.02934,6.0445 -7.33264,12.9376 -8.62594,18 -3.52025,13.77952 -7.00641,19.62829 -18.40061,30.87085 -11.91318,11.75465 -21.43851,17.98757 -35.06004,22.94161 -9.98715,3.63224 -29.78655,5.80158 -38.32207,4.19876 -2.93333,-0.55081 -8.78131,-1.67532 -12.99549,-2.49888 -4.21419,-0.82356 -14.18223,-4.69732 -22.1512,-8.60836 -28.6301,-14.05114 -42.10826,-17.2166 -67.82405,-15.929 -8.63276,0.43226 -16.5501,1.05679 -17.59409,1.38787 -7.70236,2.44267 61.10245,52.84292 96.88127,70.96657 26.03787,13.1894 44.07055,20.14767 61.01689,23.5446 31.95236,6.40492 38.56061,7.46119 53.9917,8.63014 16.19548,1.22685 21.34164,3.0474 21.34164,7.54997 0,3.96845 -3.309,5.97481 -17.33333,10.50984 -6.23334,2.01567 -11.93334,4.01551 -12.66667,4.44409 -1.95221,1.14095 -17.61595,6.65059 -25.33334,8.91088 -3.66666,1.0739 -8.18124,1.63447 -10.03238,1.24572 -1.85115,-0.38876 -12.65115,0.84215 -24,2.73534 -21.55603,3.59592 -45.13366,6.5142 -69.96762,8.6601 -13.51576,1.16791 -51.03397,1.44938 -62,0.46514 z M 804.72489,694.04221 c 4.79596,-6.28782 7.5051,-15.71424 7.48452,-26.04221 -0.0197,-9.8962 -2.08243,-16.55353 -8.03926,-25.94647 -2.29357,-3.61658 -4.17013,-7.54589 -4.17013,-8.73178 0,-2.38186 5.64031,-8.12462 10.37068,-10.55907 12.90615,-6.64204 -24.12896,-4.63756 -41.5936,2.25121 -8.70152,3.43224 -26.94689,14.7987 -34.14921,21.2742 -7.56023,6.79731 -8.16891,9.68662 -3.89883,18.50742 6.45849,13.34146 19.58384,24.0794 37.18336,30.41997 10.72395,3.86352 27.36231,6.28368 31.0334,4.51403 1.25353,-0.60426 3.85411,-3.16355 5.77907,-5.6873 z M 471.23811,611.23809 c 1.15238,-1.15237 2.09524,-3.22496 2.09524,-4.60573 0,-1.38077 -2.99144,-14.59005 -6.64766,-29.35396 -3.65621,-14.76389 -9.97588,-42.24132 -14.04373,-61.06092 -8.32681,-38.52347 -8.86116,-40.23157 -14.28147,-45.65187 -4.58147,-4.58148 -10.17755,-5.1177 -13.62727,-1.30581 -3.48684,3.85292 -2.33918,10.46552 6.95494,40.07353 4.48884,14.3 13.00703,42.5 18.92929,62.66667 7.83414,26.677 11.52746,37.30237 13.5562,39 3.42848,2.86889 4.40088,2.90167 7.06446,0.23809 z m 193.67473,-29.15496 c 23.88548,-5.03846 92.42051,-28.67058 92.42051,-31.86826 0,-2.2662 -15.40426,0.25945 -26.20104,4.29588 -5.75609,2.15193 -15.56562,5.82058 -21.79896,8.15254 -44.20689,16.53834 -76.43119,8.52159 -111.66667,-27.78036 -6.78333,-6.98864 -12.33333,-12.06466 -12.33333,-11.28005 0,5.81767 30.23716,40.29329 44.56424,50.811 6.65251,4.88369 17.69737,9.46312 23.01525,9.54259 1.60207,0.024 7.00207,-0.81906 12,-1.87334 z m -83.8625,-151.32548 c 3.87768,-0.5454 7.51817,-1.53898 8.08998,-2.20797 0.57182,-0.66899 1.81983,-4.51635 2.77336,-8.54968 4.4259,-18.72092 15.77044,-40.04284 29.04207,-54.58421 4.60768,-5.04851 8.3776,-9.59742 8.3776,-10.10866 0,-1.9771 -7.70292,1.10912 -15.68976,6.2862 -10.22759,6.62954 -19.95839,17.07398 -26.88888,28.86087 -5.95867,10.13405 -15.65617,32.38656 -16.96435,38.92743 -0.78987,3.94929 -0.61957,4.29537 1.6649,3.38346 1.39961,-0.55869 5.7174,-1.46205 9.59508,-2.00744 z M 414.22561,401.84281 c 2.19753,-3.35385 2.08837,-4.56753 -2.78813,-31 -6.9064,-37.43528 -11.5983,-65.14284 -17.9798,-106.17824 -2.9653,-19.06782 -6.25674,-39.16782 -7.31432,-44.66666 -1.46418,-7.6128 -1.55159,-10.35259 -0.36646,-11.48467 2.42938,-2.32061 23.58379,-5.85619 29.78472,-4.97797 7.9391,1.12438 11.90426,5.89326 24.22174,29.1314 5.8306,11 12.82781,23.57836 15.54936,27.95192 l 4.94828,7.95192 1.78785,-5.20051 c 1.69218,-4.92223 1.53595,-5.81145 -2.91968,-16.61859 -9.12886,-22.14204 -20.43111,-42.33844 -27.27665,-48.74164 C 425.54202,192.08833 425.3125,192 416.25737,192 c -7.28805,0 -12.98359,1.24187 -27.51764,6 -10.08008,3.3 -19.02019,6.00587 -19.86691,6.01303 -0.8467,0.007 -4.53948,1.42621 -8.20614,3.15345 -4.80722,2.26449 -10.52458,7.29929 -20.49835,18.05116 l -13.83167,14.91073 5.40379,4.62544 c 2.97208,2.544 6.65459,6.6493 8.18336,9.12288 1.52876,2.4736 9.59763,24.81327 17.93083,49.64371 27.09572,80.73728 32.03981,92.71333 40.70597,98.60215 6.43068,4.36977 12.69179,4.25796 15.665,-0.27974 z m 98.44107,-55.17614 c 1.75832,-0.75558 1.98541,-1.17087 0.66667,-1.2192 -1.1,-0.0403 -2.9,0.50832 -4,1.2192 -2.4373,1.57509 -0.33212,1.57509 3.33333,0 z m 100.78724,-11.42428 c -23.04136,-4.20376 -54.21793,-17.25332 -74.12057,-31.0246 -21.14228,-14.62903 -37.69359,-34.59488 -46.1167,-55.63059 -5.52322,-13.7936 -6.95834,-22.95551 -6.19642,-39.55847 0.5952,-12.97025 1.10717,-15.25373 5.48842,-24.4794 6.18087,-13.01517 11.07903,-19.13133 20.1358,-25.14286 3.99942,-2.65467 7.74054,-5.64046 8.31362,-6.6351 0.57306,-0.99462 4.34194,-4.36932 8.37528,-7.49929 4.03333,-3.12999 11.04606,-9.21073 15.58385,-13.51278 4.90683,-4.65191 11.82287,-9.4936 17.06521,-11.94679 8.3311,-3.89859 9.51509,-4.09425 21.5817,-3.5665 l 12.76703,0.55839 4.58501,5.00311 c 2.52176,2.75171 4.39725,5.96653 4.16777,7.14404 -0.2663,1.36649 -3.49904,3.00962 -8.93672,4.54237 -15.69188,4.42313 -24.0356,13.00227 -29.48143,30.3132 -6.16669,19.60236 -1.17276,41.24549 13.59923,58.93752 4.10094,4.91159 17.93659,14.99241 26.48514,19.29739 11.7809,5.93277 32.93109,12.14342 34.84302,10.23149 1.8733,-1.87329 1.64563,-17.81136 -0.34214,-23.95141 -2.64468,-8.1692 -7.25735,-16.50236 -13.77658,-24.8885 -3.3776,-4.34485 -6.14109,-8.4023 -6.14109,-9.01656 0,-0.61426 3.3,-3.22782 7.33333,-5.80792 5.53159,-3.5385 7.33334,-5.47326 7.33334,-7.87469 0,-2.22748 1.46765,-4.09067 4.88678,-6.20381 10.84314,-6.70143 28.08206,-5.65518 45.19751,2.74308 13.65211,6.69886 22.83644,16.10641 29.57304,30.29176 4.1725,8.78609 4.95884,11.94544 5.43096,21.82016 0.8693,18.18208 -1.31585,25.08786 -14.68369,46.40542 -1.53744,2.45174 -3.30671,7.25174 -3.93171,10.66667 -3.02582,16.53291 -18.14244,35.65816 -34.58443,43.75552 -14.51625,7.14897 -33.30232,8.8846 -54.43456,5.02915 z"
         id="path299" />
      <path
         style="fill:#0edeb6;stroke-width:1.33333"
         d="m 644.66668,915.239 c -2.93333,-0.28107 -12.53333,-1.17159 -21.33333,-1.97892 -59.11847,-5.42369 -134.78467,-31.09387 -191.12289,-64.83948 -17.92897,-10.73915 -40.91505,-26.42245 -47.54378,-32.43892 -2.2,-1.99679 -5.01879,-4.16592 -6.26398,-4.82029 -7.5879,-3.98759 -54.29257,-50.1383 -65.49619,-64.71934 -13.70476,-17.83618 -24.50293,-34.78572 -33.87346,-53.17005 l -9.14338,-17.93867 -15.27817,-0.78338 c -12.18816,-0.62495 -16.49165,-1.39696 -21.27816,-3.81714 -13.05652,-6.60169 -15.16687,-10.2499 -26.64756,-46.06614 -13.82736,-43.13711 -34.80899,-109.26024 -37.93068,-119.53774 -1.92747,-6.34574 -4.23587,-12.11756 -5.12979,-12.82624 -0.89392,-0.70866 -4.02531,-2.04469 -6.95864,-2.96892 -16.38301,-5.16196 -31.32878,-16.30718 -36.67345,-27.34778 -3.059,-6.31906 -11.71948,-48.83094 -16.70469,-81.99868 -2.24188,-14.91571 -3.770495,-31.82636 -4.241362,-46.9209 -0.709015,-22.72881 -0.608409,-24.01012 2.724552,-34.70008 4.5113,-14.4693 11.44668,-24.40473 20.93691,-29.99361 4.01026,-2.36168 8.17768,-4.81844 9.26095,-5.45947 1.68914,-0.99956 1.44962,-2.66625 -1.68224,-11.70604 -2.0085,-5.7973 -3.64481,-11.29054 -3.63624,-12.20721 0.01,-1.03011 1.92527,-1.67551 5.01557,-1.68981 13.91956,-0.0644 42.04183,-10.22096 52.69247,-19.03016 10.52033,-8.70143 18.14787,-16.73982 20.73512,-21.85202 4.15849,-8.21686 5.97771,-22.20052 5.2706,-40.51334 -0.74315,-19.24636 -2.64517,-25.86861 -11.09903,-38.64315 C 192.03935,106.35163 171.25523,86.137373 160.64851,79.713012 138.7602,66.45552 114.50113,57.583515 92.000002,54.60694 76.868194,52.605219 47.672112,52.984099 33.333334,55.368261 8.3440744,59.52332 8.250402,59.522612 6.6695382,55.16672 5.9043602,53.058357 4.6254685,50.050917 3.827557,48.48352 2.0277109,44.947947 5.9737555,14.948528 8.5964149,12.228743 11.804516,8.9018356 47.824585,5.1305809 83.333336,4.4038839 113.15113,3.7936537 118.42444,4.0199555 133.33334,6.5496129 c 46.6196,7.9101511 80.59004,27.5455441 114.75515,66.3301121 7.64865,8.682818 14.25566,16.086942 14.68226,16.453608 0.4266,0.366667 4.68379,6.366667 9.46043,13.333337 21.16615,30.87058 23.32291,33.52309 36.20917,44.53217 7.23218,6.17865 19.27193,12.92609 23.25607,13.03343 1.26698,0.0341 4.40359,-0.27422 6.97026,-0.68522 22.07068,-3.53418 34.41212,-9.04656 45.66666,-20.39732 4.21667,-4.2527 7.66667,-8.20114 7.66667,-8.77429 0,-0.57316 0.92431,-1.04211 2.05401,-1.04211 1.53271,0 1.98539,1.26899 1.7836,5 -0.19648,3.63287 0.86606,6.77723 3.88602,11.49982 4.05157,6.33582 7.02533,16.96593 6.52488,23.3241 -0.24528,3.11626 -0.0753,3.15954 13.08482,3.33334 11.88819,0.157 13.99294,0.56385 19.41902,3.75382 3.34713,1.96775 8.339,6.46775 11.09303,10 7.42149,9.51856 23.42108,43.34774 54.89093,116.06022 15.11351,34.9204 18.88841,40.06284 35.93036,48.94678 l 9.33333,4.86546 -7.17982,-0.68358 c -4.14028,-0.39418 -10.91383,-2.49029 -16,-4.95126 -6.62708,-3.20654 -10.84166,-4.32268 -16.95012,-4.48888 l -8.12996,-0.2212 4.12996,3.51072 c 2.27146,1.93089 6.66793,5.4731 9.76992,7.87158 l 5.63997,4.36088 -3.78773,7.57576 c -8.34242,16.68548 -11.04511,31.61303 -9.35355,51.66146 1.02073,12.09768 1.1882,12.56228 7.93775,22.02141 3.79225,5.31464 11.13398,13.61472 16.31494,18.44461 12.53931,11.68963 13.08104,12.227 16.95344,16.817 1.83963,2.18055 5.84187,5.59154 8.89386,7.57998 3.05198,1.98844 5.9772,4.98844 6.50046,6.66666 1.66044,5.32536 22.02677,40.04643 28.37635,48.3768 8.37987,10.99399 30.1311,32.50698 38.19171,37.77338 3.65228,2.38622 9.86027,5.27458 13.79552,6.4186 8.07205,2.34661 12.19519,1.97805 33.21488,-2.96904 12.95947,-3.05008 13.93872,-3.10516 19.33334,-1.0873 3.12533,1.16904 7.33242,2.43663 9.34909,2.81687 2.01667,0.38024 3.66667,1.12281 3.66667,1.65017 0,0.52735 4.50213,2.07994 10.00473,3.45018 11.26201,2.80444 11.11315,2.3907 5.13779,14.2798 -3.992,7.94281 -8.19683,25.28846 -9.29463,38.34186 -1.58904,18.89483 4.71649,34.57939 20.12931,50.07007 7.28852,7.32535 12.15534,10.789 22.0228,15.67331 6.96666,3.44845 14.52713,6.26692 16.80104,6.26326 6.17873,-0.009 12.49598,-2.54981 11.67342,-4.69338 -0.50793,-1.32367 0.86906,-1.93715 5.08106,-2.26378 l 5.77781,-0.44802 -6.66667,-1.01628 c -13.64184,-2.07959 -24.24282,-5.05111 -32.66666,-9.15667 -9.13016,-4.44979 -17.33323,-10.27169 -17.3333,-12.30183 -2e-5,-0.66365 1.2041,-0.11693 2.67582,1.21496 8.55553,7.74266 32.01392,16.65836 43.83032,16.65836 2.38469,0 5.50242,0.62436 6.9283,1.38747 5.07528,2.71621 13.40523,-9.84287 16.5742,-24.98893 2.30082,-10.99675 0.84634,-20.88922 -4.64405,-31.58582 -5.94364,-11.57968 -5.63309,-12.73841 2.96871,-11.07692 8.94377,1.72756 17.30429,7.41408 20.39331,13.87078 1.47877,3.09096 2.64802,9.26897 3.00462,15.87569 0.52004,9.63461 0.18531,11.70352 -3.06554,18.94737 -2.15368,4.79903 -6.18004,10.56238 -9.82419,14.06236 -3.39618,3.26182 -7.05522,6.99972 -8.13119,8.30643 -1.75295,2.12885 -1.71829,2.28451 0.33333,1.49723 1.25931,-0.48324 2.28966,-0.29746 2.28966,0.41285 0,0.71032 0.85,1.29149 1.88889,1.29149 1.03888,0 2.11416,0.67583 2.38949,1.50183 0.81535,2.44603 10.66502,-3.34243 16.29902,-9.57859 7.91467,-8.76058 11.82879,-18.67005 12.51517,-31.68488 1.4145,-26.82086 -10.16286,-44.03697 -29.75924,-44.25344 l -6.66667,-0.0736 3.13528,-2.61224 c 2.76264,-2.30176 2.86815,-2.71474 0.88768,-3.47472 -3.64922,-1.40034 -28.6933,0.53492 -37.35629,2.88667 -14.59244,3.96144 -36.11548,16.58744 -47.63437,27.94361 l -6.22191,6.13403 -0.94327,-5.02799 c -2.55838,-13.63737 6.71155,-34.48682 22.02854,-49.54546 28.06342,-27.5901 71.0277,-37.78932 93.87487,-22.28483 3.8333,2.60136 4.89614,2.88011 4.89614,1.28412 0,-1.12119 0.58179,-1.67895 1.29286,-1.23948 1.75352,1.08373 6.70714,18.01983 6.70714,22.93124 0,5.30067 -3.70454,15.87331 -7.54454,21.53185 -3.87319,5.70747 -3.8726,5.72538 0.31521,9.65963 4.56023,4.28411 11.81269,16.36068 14.77395,24.60105 1.79145,4.98514 2.32993,10.11515 2.16596,20.63458 -0.25307,16.23421 -3.18538,25.14928 -12.97424,39.44553 -4.18235,6.10816 -6.1511,10.63429 -7.18927,16.52812 -0.78633,4.46407 -3.10609,11.22897 -5.15504,15.03315 -8.09381,15.02733 -28.73115,31.69344 -48.39203,39.07997 -9.05403,3.40157 -11.63969,3.76121 -27.33333,3.80175 -20.76738,0.0536 -25.68932,-1.21095 -51.33334,-13.18915 -25.64569,-11.97897 -31.83591,-13.35153 -58.56275,-12.98515 -12.04284,0.16508 -22.20542,0.6095 -22.5835,0.98759 -2.37903,2.37901 28.81338,27.44632 62.47958,50.21077 35.51045,24.0115 87.12478,45.78623 119.56391,50.44087 5.00652,0.71839 12.10276,1.87197 15.76943,2.56353 3.66667,0.69156 10.86667,1.33927 16,1.43934 12.45322,0.24277 19.87488,2.51774 20.41424,6.25758 0.53559,3.71364 0.42996,3.76444 -31.11009,14.96275 -19.44868,6.90527 -28.33524,9.42437 -33.25584,9.42717 -3.69324,0.003 -13.91498,1.21544 -22.71498,2.69632 -37.34129,6.28384 -67.75737,9.39631 -96.66667,9.89184 -15.76666,0.27026 -31.06666,0.26142 -34,-0.0196 z m 78.02675,-197.27123 c 0.92763,-1.11772 1.31135,-2.40745 0.85272,-2.86608 -1.2607,-1.2607 -9.25889,1.36994 -9.88612,3.25159 -0.80656,2.41968 6.98112,2.08733 9.0334,-0.38551 z m 69.90287,-8.74832 c -0.42929,-0.69462 -1.34887,-0.9117 -2.04349,-0.4824 -0.69463,0.4293 -0.91171,1.34887 -0.4824,2.0435 0.42929,0.69462 1.34886,0.9117 2.04349,0.4824 0.69463,-0.4293 0.91171,-1.34887 0.4824,-2.0435 z M 678.46454,674.81981 c 3.02013,-1.91394 1.2277,-6.10909 -2.80926,-6.57504 -3.08654,-0.35625 -3.65526,0.0759 -3.65526,2.77778 0,4.85164 2.49145,6.31512 6.46452,3.79726 z m 1.12285,-45.00104 c 0.89087,-2.32156 -0.84485,-6.0157 -3.19453,-6.79893 -0.77916,-0.25972 -2.38511,0.49623 -3.56878,1.67989 -1.63216,1.63218 -1.81928,2.77403 -0.7745,4.7262 1.68056,3.14015 6.3894,3.38556 7.53781,0.39284 z M 471.23811,611.23809 c 1.15238,-1.15237 2.09524,-3.22496 2.09524,-4.60573 0,-1.38077 -2.99144,-14.59005 -6.64766,-29.35396 -3.65621,-14.76389 -9.97588,-42.24132 -14.04373,-61.06092 -8.32681,-38.52347 -8.86116,-40.23157 -14.28147,-45.65187 -4.58147,-4.58148 -10.17755,-5.1177 -13.62727,-1.30581 -3.48684,3.85292 -2.33918,10.46552 6.95494,40.07353 4.48884,14.3 13.00703,42.5 18.92929,62.66667 7.83414,26.677 11.52746,37.30237 13.5562,39 3.42848,2.86889 4.40088,2.90167 7.06446,0.23809 z M 677.928,608.5098 c 5.84658,-2.24353 5.01408,-11.17647 -1.04156,-11.17647 -3.99382,0 -6.21976,2.40178 -6.21976,6.71111 0,5.14527 2.1093,6.44237 7.26132,4.46536 z M 537.81552,536.66667 c -0.81147,-2.11464 -3.14884,-2.77446 -3.14884,-0.8889 0,1.41003 1.45745,2.8889 2.84704,2.8889 0.58809,0 0.72391,-0.9 0.3018,-2 z m -17.72133,-50.5143 c -1.53619,-2.48558 -3.77852,-5.3367 -4.98299,-6.33581 -1.90092,-1.57683 -1.87271,-1.20069 0.21381,2.85011 3.93419,7.63785 6.52155,11.12702 7.05792,9.51789 0.27738,-0.83211 -0.75256,-3.54659 -2.28874,-6.03219 z M 414.22561,401.84281 c 2.19753,-3.35385 2.08837,-4.56753 -2.78813,-31 -6.9064,-37.43528 -11.5983,-65.14284 -17.9798,-106.17824 -2.9653,-19.06782 -6.25674,-39.16782 -7.31432,-44.66666 -1.46418,-7.6128 -1.55159,-10.35259 -0.36646,-11.48467 2.42938,-2.32061 23.58379,-5.85619 29.78472,-4.97797 7.9391,1.12438 11.90426,5.89326 24.22174,29.1314 5.8306,11 12.82781,23.57836 15.54936,27.95192 l 4.94828,7.95192 1.78785,-5.20051 c 1.69218,-4.92223 1.53595,-5.81145 -2.91968,-16.61859 -9.12886,-22.14204 -20.43111,-42.33844 -27.27665,-48.74164 C 425.54202,192.08833 425.3125,192 416.25737,192 c -7.28805,0 -12.98359,1.24187 -27.51764,6 -10.08008,3.3 -19.02019,6.00587 -19.86691,6.01303 -0.8467,0.007 -4.53948,1.42621 -8.20614,3.15345 -4.80722,2.26449 -10.52458,7.29929 -20.49835,18.05116 l -13.83167,14.91073 5.40379,4.62544 c 2.97208,2.544 6.65459,6.6493 8.18336,9.12288 1.52876,2.4736 9.59763,24.81327 17.93083,49.64371 27.09572,80.73728 32.03981,92.71333 40.70597,98.60215 6.43068,4.36977 12.69179,4.25796 15.665,-0.27974 z M 733.8417,677 c -0.54029,-0.91667 -1.84471,-3.01667 -2.89869,-4.66667 -2.9656,-4.64258 -1.00596,-3.54165 2.96661,1.66667 1.95769,2.56667 2.96432,4.66667 2.23695,4.66667 -0.72738,0 -1.76456,-0.75 -2.30487,-1.66667 z m -6.42263,-11.27583 c -0.72357,-1.90026 -0.57042,-2.05341 0.7464,-0.7464 0.91123,0.90446 1.3209,1.98032 0.91038,2.39084 -0.41052,0.41052 -1.15607,-0.32948 -1.65678,-1.64444 z M 670.41668,553.75585 c 0.9625,-0.38516 2.11251,-0.3378 2.55556,0.1052 0.44306,0.44306 -0.34445,0.75819 -1.75,0.7003 -1.55326,-0.064 -1.8692,-0.37992 -0.80556,-0.80555 z M 613.33335,335.32364 c -22.06124,-4.17921 -56.32622,-18.89265 -75.33334,-32.34828 -19.66977,-13.92473 -37.03238,-35.38732 -44.68916,-55.24197 -5.79061,-15.01556 -7.05262,-22.51007 -6.33972,-37.64834 0.50547,-10.73344 1.3697,-15.15253 4.31907,-22.08505 4.76753,-11.20611 11.97177,-21.45255 17.91109,-25.4746 2.59254,-1.75564 7.57522,-5.71751 11.0726,-8.80416 3.4974,-3.08665 9.81654,-8.14312 14.04251,-11.23661 4.22599,-3.09348 10.68361,-8.30643 14.35028,-11.58432 9.7128,-8.68296 27.33334,-16.56942 27.33334,-12.23364 0,0.73333 -0.87178,1.33333 -1.93727,1.33333 -3.06364,0 -8.72898,2.94977 -8.73364,4.54735 -0.002,0.79896 -2.40755,5.05265 -5.34491,9.45265 -8.83963,13.24125 -14.65085,32.79729 -14.65085,49.30333 0,18.03986 8.73974,44.93198 19.26034,59.2639 5.64199,7.68593 8.19746,9.43277 13.79927,9.43277 2.14588,0 5.93532,1.36943 8.42099,3.04317 6.65244,4.47948 13.14053,7.30442 20.58039,8.96078 3.63312,0.80885 9.17665,2.33885 12.31894,3.40001 8.38811,2.83268 30.43666,2.27464 54.28674,-1.37396 2.93333,-0.44875 9.53333,-2.83436 14.66666,-5.30137 7.47998,-3.59478 10.65717,-4.40732 16.00001,-4.09192 7.6403,0.45102 9.48636,-0.59615 10.6869,-6.06218 0.47207,-2.14932 1.41064,-3.90786 2.08571,-3.90786 1.49704,0 1.60425,-0.67002 -1.17347,7.33333 -1.27258,3.66667 -4.66982,10.53745 -7.5494,15.26843 -3.47772,5.71365 -5.56285,11.01321 -6.21025,15.78393 -1.16516,8.58619 -6.16023,19.25041 -13.17123,28.11999 -5.92343,7.4937 -20.35232,17.51093 -30.0016,20.82856 -9.03712,3.10714 -32.95056,3.79478 -46,1.32273 z m -9.33333,-55.42923 c -23.24432,-13.87922 -39.65237,-26.12904 -49.32974,-36.82828 -11.59597,-12.82042 -21.83045,-29.45258 -25.98796,-42.23328 -2.06452,-6.3466 -3.94777,-11.34517 -4.185,-11.10793 -1.40937,1.40937 3.00093,18.91633 6.88083,27.31388 12.39993,26.83803 41.36728,53.34004 72.62187,66.4412 12.05028,5.05117 12.05028,3.60967 0,-3.58559 z m 38.82422,-35.37358 c 0.0361,-16.16954 -3.6461,-26.02459 -15.35176,-41.08722 -3.37652,-4.34485 -6.13913,-8.4023 -6.13913,-9.01656 0,-0.61426 3.22175,-3.17777 7.15945,-5.69669 3.9377,-2.51891 7.48779,-5.83541 7.8891,-7.37 0.77045,-2.94623 0.80832,-2.94593 13.03034,0.0996 16.92922,4.21844 33.72622,27.74447 33.71159,47.21675 -0.012,16.73845 -9.85489,25.40378 -30.63979,26.97574 l -9.68628,0.73258 0.0265,-11.85416 z m 74.50911,-3.1875 c 0,-2.48889 0.35556,-2.84444 1.6,-1.6 1.24444,1.24444 1.24444,1.95556 0,3.2 -1.24444,1.24444 -1.6,0.8889 -1.6,-1.6 z m 0.8889,-14.22222 c -0.4889,-0.48888 -0.87066,-1.83888 -0.84835,-3 0.0333,-1.73374 0.29348,-1.67614 1.45555,0.32222 1.4357,2.46892 1.01948,4.30447 -0.6072,2.67778 z M 561.64268,182.66667 c 0,-2.56667 0.2744,-3.61667 0.60977,-2.33334 0.33536,1.28334 0.33536,3.38334 0,4.66667 -0.33537,1.28333 -0.60977,0.23333 -0.60977,-2.33333 z M 593.33335,120 c 0,-0.73333 0.56459,-1.33333 1.25464,-1.33333 0.69005,0 1.62547,0.6 2.07869,1.33333 0.45323,0.73333 -0.11133,1.33333 -1.25464,1.33333 -1.14328,0 -2.07869,-0.6 -2.07869,-1.33333 z"
         id="path297" />
      <path
         style="fill:#dd3e1b;stroke-width:1.33333"
         d="m 644.66668,915.239 c -2.93333,-0.28107 -12.53333,-1.17159 -21.33333,-1.97892 -59.11847,-5.42369 -134.78467,-31.09387 -191.12289,-64.83948 -17.92897,-10.73915 -40.91505,-26.42245 -47.54378,-32.43892 -2.2,-1.99679 -5.01879,-4.16592 -6.26398,-4.82029 -7.5879,-3.98759 -54.29257,-50.1383 -65.49619,-64.71934 -13.70476,-17.83618 -24.50293,-34.78572 -33.87346,-53.17005 l -9.14338,-17.93867 -15.27817,-0.78338 c -12.18816,-0.62495 -16.49165,-1.39696 -21.27816,-3.81714 -13.05652,-6.60169 -15.16687,-10.2499 -26.64756,-46.06614 -13.82736,-43.13711 -34.80899,-109.26024 -37.93068,-119.53774 -1.92747,-6.34574 -4.23587,-12.11756 -5.12979,-12.82624 -0.89392,-0.70866 -4.02531,-2.04469 -6.95864,-2.96892 -16.38301,-5.16196 -31.32878,-16.30718 -36.67345,-27.34778 -3.059,-6.31906 -11.71948,-48.83094 -16.70469,-81.99868 -2.24188,-14.91571 -3.770495,-31.82636 -4.241362,-46.9209 -0.709015,-22.72881 -0.608409,-24.01012 2.724552,-34.70008 4.5113,-14.4693 11.44668,-24.40473 20.93691,-29.99361 4.01026,-2.36168 8.17768,-4.81844 9.26095,-5.45947 1.68914,-0.99956 1.44962,-2.66625 -1.68224,-11.70604 -2.0085,-5.7973 -3.64481,-11.29054 -3.63624,-12.20721 0.01,-1.03011 1.92527,-1.67551 5.01557,-1.68981 13.91956,-0.0644 42.04183,-10.22096 52.69247,-19.03016 10.52033,-8.70143 18.14787,-16.73982 20.73512,-21.85202 4.15849,-8.21686 5.97771,-22.20052 5.2706,-40.51334 -0.74315,-19.24636 -2.64517,-25.86861 -11.09903,-38.64315 C 192.03935,106.35163 171.25523,86.137373 160.64851,79.713012 138.7602,66.45552 114.50113,57.583515 92.000002,54.60694 76.868194,52.605219 47.672112,52.984099 33.333334,55.368261 8.3440744,59.52332 8.250402,59.522612 6.6695382,55.16672 5.9043602,53.058357 4.6254685,50.050917 3.827557,48.48352 2.0267333,44.946027 5.9744346,14.947773 8.5989341,12.226224 13.340303,7.3095261 109.93394,0.91168031 112.66667,5.3333333 c 0.52028,0.841825 -3.01415,1.3776616 -9.58798,1.4535844 -13.478838,0.1556704 -8.231885,1.6171918 13.58798,3.7848863 63.45391,6.303827 108.78342,35.905025 147.80295,96.518696 10.4798,16.2795 12.57645,20.3943 18.34604,36.00507 5.86913,15.88014 14.42585,26.73138 25.53568,32.3832 3.49896,1.78002 2.52907,0.33435 -5.12684,-7.64173 -10.58332,-11.02592 -17.67093,-21.92393 -15.60319,-23.99168 0.85975,-0.85975 4.68254,1.44292 11.0984,6.68517 20.72978,16.93783 41.51693,25.82788 63.94697,27.34827 15.19476,1.02996 18.54294,-0.21587 21.04713,-7.83143 2.65125,-8.06278 1.31791,-9.43462 -5.06461,-5.21086 -11.94864,7.90722 -26.0598,8.07882 -42.31586,0.51458 -8.86153,-4.12344 -10.1782,-5.40392 -5.33333,-5.18676 8.59633,0.38532 25.96856,-3.80261 36.20087,-8.72694 8.55984,-4.11946 24.79913,-17.91152 24.79913,-21.06195 0,-0.57316 0.92431,-1.04211 2.05401,-1.04211 1.53046,0 1.98832,1.27449 1.79631,5 -0.18889,3.66482 0.93272,6.89286 4.20019,12.08832 3.59886,5.7224 4.60161,8.90231 5.20369,16.50176 l 0.7458,9.41343 13.33333,0.25369 c 15.21835,0.28956 18.44635,1.51027 27.26989,10.31239 4.39776,4.38709 8.9169,12.21516 18.92061,32.77425 7.22856,14.85579 13.14284,27.31618 13.14284,27.68976 0,0.37359 4.73845,11.31886 10.52988,24.32283 5.79144,13.00396 13.00509,29.64357 16.03035,36.97691 12.01588,29.12694 18.31472,37.49073 34.7731,46.1728 l 10,5.27514 -7.23905,-0.68946 c -10.36223,-0.98692 -25.10155,-8.35115 -32.26164,-16.11894 -9.12197,-9.89617 -11.04733,-13.30392 -30.79329,-54.50164 -37.55389,-78.3519 -42.72419,-87.47002 -52.12942,-91.9331 -8.64544,-4.10254 -17.47132,-2.9245 -43.94097,5.86502 -24.85762,8.25423 -31.70763,11.7367 -37.53463,19.0822 -1.82432,2.29972 -7.24335,8.35622 -12.04231,13.45888 -8.52956,9.06939 -10.0446,11.3891 -7.43842,11.3891 2.5316,0 10.9209,8.51302 13.67212,13.87376 1.54108,3.00276 10.46877,28.25957 19.83933,56.12624 25.91025,77.05328 29.45448,85.30926 39.21103,91.33914 5.3978,3.33603 10.13364,3.38547 14.13232,0.14754 4.20138,-3.40208 3.99574,-5.89744 -3.96807,-48.15335 -3.66253,-19.43333 -9.74016,-55.73333 -13.50584,-80.66667 -3.76567,-24.93333 -7.70144,-49.80833 -8.74616,-55.27776 -1.04471,-5.46944 -1.45447,-10.33554 -0.91057,-10.81358 1.32732,-1.16658 22.67637,-5.24432 27.44985,-5.24303 5.53272,10e-4 10.59035,3.50389 15.16637,10.50264 4.81444,7.36336 19.43431,36.39444 37.10009,73.67068 25.12561,53.01711 25.65508,55.25871 16.2726,68.89365 -3.11667,4.52926 -10.0798,13.92027 -15.47363,20.86892 -10.47916,13.4999 -13.38884,19.57404 -13.44393,28.06515 -0.0449,6.92052 2.58066,23.54171 8.42484,53.33333 2.58941,13.2 6.24084,31.8 8.11426,41.33334 3.67666,18.70948 9.275,42.77676 12.71615,54.66666 4.72883,16.33908 7.74131,28.03211 7.32833,28.44508 -1.27301,1.27302 -3.1398,-1.60292 -4.4703,-6.88685 -1.9296,-7.66313 -12.2487,-19.31039 -10.95642,-12.36661 3.71618,19.96805 4.43494,25.23249 4.20628,30.80838 -0.15036,3.66667 -0.72674,7.1263 -1.28086,7.68806 -1.14871,1.16454 -11.72106,-39.48575 -22.2858,-85.68806 -9.46448,-41.39053 -9.38892,-41.15706 -15.19891,-46.96705 -5.81458,-5.81457 -11.16208,-6.59975 -15.76194,-2.31433 -4.51204,4.2036 -3.73237,9.78288 5.66396,40.53114 10.4849,34.31035 19.83059,66.09422 24.9199,84.75024 4.45783,16.34122 6.98972,20.40434 13.29364,21.33334 5.28913,0.77945 6.09955,2.21424 15.96467,28.26418 15.89242,41.96572 36.20957,76.37467 63.19398,107.02476 12.95591,14.7159 34.57034,36.02106 42.65129,42.041 3.7003,2.75656 10.62782,8.72166 15.39449,13.25574 4.76667,4.53409 9.76747,8.85546 11.11288,9.60305 1.34541,0.74759 3.29225,3.38412 4.32632,5.85897 1.03405,2.47486 6.41583,8.94804 11.95948,14.38487 6.20655,6.08695 10.21172,11.12655 10.42384,13.11601 0.18945,1.77699 0.75917,3.90191 1.26604,4.72204 1.31087,2.12102 52.08916,18.33696 69.57811,22.21963 8.06667,1.79084 18.26667,3.65319 22.66667,4.13852 4.4,0.48533 15.8,2.12557 25.33333,3.64497 14.07829,2.24376 20.58837,2.60514 34.66667,1.92431 25.47285,-1.23188 54,-5.94208 54,-8.91611 0,-0.70506 -1.95,-1.29113 -4.33333,-1.30236 -2.38334,-0.0107 -5.23334,-0.60204 -6.33334,-1.31292 -2.92889,-1.8928 10.01154,-1.52534 16.66667,0.47327 6.06004,1.81989 7.98435,6.37092 3.67008,8.67984 -1.37045,0.73345 -14.43512,5.57404 -29.0326,10.75688 -20.37939,7.23571 -28.21243,9.42335 -33.74115,9.42335 -3.96015,0 -15.98188,1.48098 -26.71496,3.29109 -36.39828,6.13844 -62.45096,8.76321 -92.18138,9.28712 -15.76666,0.27783 -31.06666,0.27519 -34,-0.005 z m 94.00001,-24.60443 c 27.40438,-1.66872 34.486,-3.22556 20,-4.39686 -5.5,-0.44472 -19.26446,-1.14916 -30.5877,-1.56544 -58.37705,-2.14612 -111.84808,-11.50236 -165.25815,-28.9165 -76.03005,-24.78929 -137.9941,-61.11849 -189.14248,-110.8933 -30.67502,-29.85124 -47.15047,-51.88187 -62.96527,-84.1958 -5.74242,-11.73334 -11.85204,-22.64336 -13.57692,-24.24452 -4.73167,-4.39223 -8.71506,-5.45544 -26.60574,-7.10135 -9.01356,-0.82923 -17.44788,-2.07477 -18.74293,-2.76787 -3.03101,-1.62214 -26.63209,-72.6762 -51.17133,-154.05778 -4.1974,-13.92019 -9.03751,-18.64031 -24.33978,-23.73644 -12.31884,-4.10255 -20.55295,-9.51422 -23.68144,-15.56407 -3.77437,-7.29881 -12.0418,-50.61981 -15.24084,-79.86131 -4.38069,-40.04272 -4.67227,-41.3194 -9.35657,-40.96654 -2.51731,0.18962 -2.6642,1.16192 -2.6642,17.63429 0,25.66335 9.31006,93.37607 14.88866,108.28621 3.64104,9.73154 11.43895,16.22862 26.08794,21.73602 6.42953,2.41722 13.00902,5.24952 14.62109,6.29397 3.41748,2.2142 4.21436,4.31168 15.07642,39.68272 15.87449,51.69349 40.35489,124.81004 43.20644,129.04633 4.26116,6.33046 8.88438,7.89404 26.77109,9.05411 8.88196,0.57605 17.76213,1.78235 19.73372,2.68065 2.31649,1.05547 4.64985,4.03648 6.59545,8.42611 15.60642,35.21075 29.05511,55.47316 57.31117,86.34765 30.01818,32.7999 77.07618,67.9577 120.65233,90.14131 69.20474,35.23053 140.25223,54.68483 215.0557,58.88676 26.7823,1.50444 29.43291,1.507 53.33334,0.0516 z M 347.70333,672.59107 c 1.62984,-1.14159 2.94132,-3.39159 2.91439,-5 -0.0269,-1.60843 -5.05182,-14.9244 -11.16642,-29.59107 -12.53008,-30.055 -16.11109,-35.33333 -23.97141,-35.33333 -6.8924,0 -7.28452,2.53488 -2.2396,14.47834 2.36696,5.60358 7.90275,19.18832 12.30177,30.18832 5.50414,13.76339 9.21984,21.14338 11.91579,23.66667 4.50621,4.21761 6.13453,4.47048 10.24548,1.59107 z m -45.7212,-72.91918 c -6.46719,-22.51108 -38.00387,-98.76125 -40.01526,-96.74986 -0.80098,0.80098 17.29515,54.36778 24.9127,73.74464 7.52446,19.14012 17.71394,40.14708 18.2172,37.55717 0.23654,-1.21736 -1.16504,-7.76573 -3.11464,-14.55195 z m -132.9575,-348.4022 c 5.90424,-2.46694 10.51395,-6.5621 13.20037,-11.72693 2.78826,-5.36057 0.85843,-6.29057 -3.22009,-1.55179 -1.8892,2.19503 -6.28345,5.79503 -9.76501,8 -12.36652,7.83204 -11.62575,7.1756 -8.19707,7.26395 1.67355,0.0432 5.26536,-0.85023 7.9818,-1.98523 z m 647.64206,620.10846 c -0.73334,-0.22623 -4.7867,-1.1755 -9.00748,-2.10948 -4.22078,-0.93399 -7.47424,-1.89807 -7.22991,-2.14239 0.47845,-0.47845 15.12748,1.51541 24.90406,3.38968 l 6,1.15027 -6.66667,0.0616 c -3.66667,0.0339 -7.26667,-0.12347 -8,-0.34971 z m -25.33334,-6.04482 c -1.04916,-1.69758 2.03984,-1.69758 4.66667,0 1.62597,1.05079 1.45367,1.29632 -0.92131,1.31292 -1.60672,0.0112 -3.29213,-0.57958 -3.74536,-1.31292 z m -46.79718,-73.24178 c -9.93802,-1.58519 -15.34498,-3.55444 -33.72843,-12.28414 -26.51103,-12.58921 -31.71034,-13.84096 -56.53348,-13.61069 -11.58251,0.10747 -23.23666,0.60385 -25.89812,1.10315 -4.7055,0.88276 -5.13618,0.60093 -15.60758,-10.21346 -23.10358,-23.86032 -48.95391,-57.832 -64.35516,-84.57353 C 527.32019,635.88825 513.48055,601.60699 497.33907,546 487.01132,510.42116 471.27363,438.77528 468.62753,415.29065 c -1.16104,-10.30444 0.1634,-13.466 13.74756,-32.81677 12.67803,-18.05997 13.51986,-19.58685 16.2663,-29.50352 l 2.13149,-7.69629 10.24037,8.14662 10.24036,8.14663 -3.77456,7.54968 c -8.32856,16.65833 -11.031,31.59796 -9.34037,51.63535 1.02073,12.09768 1.1882,12.56228 7.93775,22.02141 3.79225,5.31464 11.13398,13.61472 16.31494,18.44461 12.53931,11.68963 13.08104,12.227 16.95344,16.817 1.83963,2.18055 5.84187,5.59154 8.89386,7.57998 3.05198,1.98844 5.9772,4.98844 6.50046,6.66666 1.66044,5.32536 22.02677,40.04643 28.37635,48.3768 8.37987,10.99399 30.1311,32.50698 38.19171,37.77338 3.65228,2.38622 9.86027,5.27458 13.79552,6.4186 8.07205,2.34661 12.19519,1.97805 33.21488,-2.96904 12.95947,-3.05008 13.93872,-3.10516 19.33334,-1.0873 3.12533,1.16904 7.33242,2.43663 9.34909,2.81687 2.01667,0.38024 3.66667,1.12281 3.66667,1.65017 0,0.52735 4.50213,2.07994 10.00473,3.45018 11.26201,2.80444 11.11315,2.3907 5.13779,14.2798 -3.992,7.94281 -8.19683,25.28846 -9.29463,38.34186 -1.58904,18.89483 4.71649,34.57939 20.12931,50.07007 7.28852,7.32535 12.15534,10.789 22.0228,15.67331 6.96666,3.44845 14.52713,6.26692 16.80104,6.26326 6.17873,-0.009 12.49598,-2.54981 11.67342,-4.69338 -0.50793,-1.32367 0.86906,-1.93715 5.08106,-2.26378 l 5.77781,-0.44802 -6.66667,-1.01628 c -13.64184,-2.07959 -24.24282,-5.05111 -32.66666,-9.15667 -9.13016,-4.44979 -17.33323,-10.27169 -17.3333,-12.30183 -2e-5,-0.66365 1.2041,-0.11693 2.67582,1.21496 8.55553,7.74266 32.01392,16.65836 43.83032,16.65836 2.38469,0 5.50612,0.62634 6.93652,1.39187 2.16076,1.1564 3.28025,0.64891 6.61766,-3 13.17203,-14.40143 15.17811,-39.75116 4.40799,-55.70137 -1.72425,-2.55358 -3.13501,-5.91724 -3.13501,-7.47483 0,-2.69915 0.32829,-2.76856 7,-1.47987 8.94377,1.72756 17.30429,7.41408 20.39331,13.87078 1.47877,3.09096 2.64802,9.26897 3.00462,15.87569 0.52004,9.63461 0.18531,11.70352 -3.06554,18.94737 -2.15368,4.79903 -6.18004,10.56238 -9.82419,14.06236 -3.39618,3.26182 -7.05522,6.99972 -8.13119,8.30643 -1.75295,2.12885 -1.71829,2.28451 0.33333,1.49723 1.25931,-0.48324 2.28966,-0.29746 2.28966,0.41285 0,0.71032 0.85,1.29149 1.88889,1.29149 1.03888,0 2.11416,0.67583 2.38949,1.50183 0.81535,2.44603 10.66502,-3.34243 16.29902,-9.57859 7.91467,-8.76058 11.82879,-18.67005 12.51517,-31.68488 1.4145,-26.82086 -10.16286,-44.03697 -29.75924,-44.25344 l -6.66667,-0.0736 3.13528,-2.61224 c 2.7534,-2.29406 2.86287,-2.71677 0.89875,-3.47048 -4.70741,-1.8064 -31.86864,0.54674 -40.69168,3.52536 -15.78196,5.32794 -33.80683,16.3083 -44.27771,26.97302 l -6.26869,6.38474 -0.93604,-4.98952 c -2.55073,-13.59656 6.7396,-34.46884 22.03575,-49.50698 28.06342,-27.5901 71.0277,-37.78932 93.87487,-22.28483 3.8333,2.60136 4.89614,2.88011 4.89614,1.28412 0,-1.12119 0.58179,-1.67895 1.29286,-1.23948 1.7364,1.07315 6.70732,17.99907 6.70648,22.83543 -7.9e-4,4.50501 -3.88318,15.24713 -8.08356,22.36624 l -2.94412,4.9899 4.0426,4.25006 c 5.34622,5.62057 11.56228,16.00037 14.52242,24.25005 1.79968,5.01559 2.33808,10.13395 2.1739,20.66667 -0.2509,16.09424 -3.35108,25.64497 -12.60815,38.84184 -3.61251,5.14997 -6.09896,10.80804 -7.87779,17.92636 -1.42958,5.72069 -4.19865,13.13812 -6.15349,16.48318 -8.27048,14.15223 -28.59348,30.00108 -47.07115,36.70836 -10.97649,3.98439 -30.46684,5.53826 -43.46385,3.46514 z m -21.84274,-74.12378 c 0.92763,-1.11772 1.31135,-2.40745 0.85272,-2.86608 -1.2607,-1.2607 -9.25889,1.36994 -9.88612,3.25159 -0.80656,2.41968 6.98112,2.08733 9.0334,-0.38551 z m 69.90287,-8.74832 c -0.42929,-0.69462 -1.34887,-0.9117 -2.04349,-0.4824 -0.69463,0.4293 -0.91171,1.34887 -0.4824,2.0435 0.42929,0.69462 1.34886,0.9117 2.04349,0.4824 0.69463,-0.4293 0.91171,-1.34887 0.4824,-2.0435 z M 678.46454,674.81981 c 3.02013,-1.91394 1.2277,-6.10909 -2.80926,-6.57504 -3.08654,-0.35625 -3.65526,0.0759 -3.65526,2.77778 0,4.85164 2.49145,6.31512 6.46452,3.79726 z m 1.12285,-45.00104 c 0.89087,-2.32156 -0.84485,-6.0157 -3.19453,-6.79893 -0.77916,-0.25972 -2.38511,0.49623 -3.56878,1.67989 -1.63216,1.63218 -1.81928,2.77403 -0.7745,4.7262 1.68056,3.14015 6.3894,3.38556 7.53781,0.39284 z M 677.928,608.5098 c 5.84658,-2.24353 5.01408,-11.17647 -1.04156,-11.17647 -3.99382,0 -6.21976,2.40178 -6.21976,6.71111 0,5.14527 2.1093,6.44237 7.26132,4.46536 z M 537.81552,536.66667 c -0.81147,-2.11464 -3.14884,-2.77446 -3.14884,-0.8889 0,1.41003 1.45745,2.8889 2.84704,2.8889 0.58809,0 0.72391,-0.9 0.3018,-2 z m -17.72133,-50.5143 c -1.53619,-2.48558 -3.77852,-5.3367 -4.98299,-6.33581 -1.90092,-1.57683 -1.87271,-1.20069 0.21381,2.85011 3.93419,7.63785 6.52155,11.12702 7.05792,9.51789 0.27738,-0.83211 -0.75256,-3.54659 -2.28874,-6.03219 z M 733.8417,677 c -0.54029,-0.91667 -1.84471,-3.01667 -2.89869,-4.66667 -2.9656,-4.64258 -1.00596,-3.54165 2.96661,1.66667 1.95769,2.56667 2.96432,4.66667 2.23695,4.66667 -0.72738,0 -1.76456,-0.75 -2.30487,-1.66667 z m -6.42263,-11.27583 c -0.72357,-1.90026 -0.57042,-2.05341 0.7464,-0.7464 0.91123,0.90446 1.3209,1.98032 0.91038,2.39084 -0.41052,0.41052 -1.15607,-0.32948 -1.65678,-1.64444 z M 670.41668,553.75585 c 0.9625,-0.38516 2.11251,-0.3378 2.55556,0.1052 0.44306,0.44306 -0.34445,0.75819 -1.75,0.7003 -1.55326,-0.064 -1.8692,-0.37992 -0.80556,-0.80555 z M 615.33335,335.28584 c -22.57877,-4.20292 -55.95051,-17.75576 -74.539,-30.27159 -11.93454,-8.03564 -29.10878,-25.30262 -36.68447,-36.88257 -7.54165,-11.52791 -14.19485,-27.22147 -16.30848,-38.46843 -2.34592,-12.48309 -0.72511,-31.54816 3.54503,-41.69878 4.6788,-11.12204 11.8945,-21.40278 17.85486,-25.43907 2.59254,-1.75564 7.57522,-5.71751 11.0726,-8.80416 3.4974,-3.08665 9.81654,-8.14312 14.04251,-11.23661 4.22599,-3.09348 10.68361,-8.30643 14.35028,-11.58432 9.7128,-8.68296 27.33334,-16.56942 27.33334,-12.23364 0,0.73333 -0.87178,1.33333 -1.93727,1.33333 -3.06364,0 -8.72898,2.94977 -8.73364,4.54735 -0.002,0.79896 -2.40755,5.05265 -5.34491,9.45265 -8.83963,13.24125 -14.65085,32.79729 -14.65085,49.30333 0,18.03986 8.73974,44.93198 19.26034,59.2639 5.64199,7.68593 8.19746,9.43277 13.79927,9.43277 2.14588,0 5.93532,1.36943 8.42099,3.04317 6.65244,4.47948 13.14053,7.30442 20.58039,8.96078 3.63312,0.80885 9.17665,2.33885 12.31894,3.40001 8.38811,2.83268 30.43666,2.27464 54.28674,-1.37396 2.93333,-0.44875 9.53333,-2.83436 14.66666,-5.30137 7.47998,-3.59478 10.65717,-4.40732 16.00001,-4.09192 7.6403,0.45102 9.48636,-0.59615 10.6869,-6.06218 0.47207,-2.14932 1.46064,-3.90786 2.19682,-3.90786 0.73617,0 1.02749,0.75 0.64736,1.66666 -0.38014,0.91667 -1.46459,4.06667 -2.4099,7 -0.94532,2.93334 -4.2843,9.50575 -7.41997,14.60536 -3.13567,5.0996 -5.70121,10.54071 -5.70121,12.09132 0,6.05648 -4.28099,16.69334 -10.53785,26.18314 -5.15449,7.81784 -8.57454,11.29232 -16.05697,16.31248 -5.22911,3.50834 -12.93445,7.58696 -17.12299,9.06357 -10.10506,3.5624 -29.53249,4.31812 -43.61553,1.69664 z m -11.33333,-55.39143 c -23.24432,-13.87922 -39.65237,-26.12904 -49.32974,-36.82828 -11.59597,-12.82042 -21.83045,-29.45258 -25.98796,-42.23328 -2.06452,-6.3466 -3.94777,-11.34517 -4.185,-11.10793 -1.40937,1.40937 3.00093,18.91633 6.88083,27.31388 12.39993,26.83803 41.36728,53.34004 72.62187,66.4412 12.05028,5.05117 12.05028,3.60967 0,-3.58559 z m 39.10274,-30.72861 c 1.78268,-15.16785 -3.34334,-31.09379 -14.36166,-44.61993 -3.34092,-4.10134 -6.07442,-8.50663 -6.07442,-9.78952 0,-1.4222 2.56748,-3.72994 6.57855,-5.91303 4.36972,-2.37831 6.72007,-4.57596 7,-6.54524 0.45883,-3.22767 3.52599,-3.43979 13.16701,-0.91059 17.07774,4.48011 33.7262,27.82892 33.71159,47.27918 -0.012,16.8191 -9.84173,25.4028 -30.91337,26.99644 l -9.95987,0.75326 z m 74.23059,-7.83247 c 0,-2.48889 0.35556,-2.84444 1.6,-1.6 1.24444,1.24444 1.24444,1.95556 0,3.2 -1.24444,1.24444 -1.6,0.8889 -1.6,-1.6 z m 0.8889,-14.22222 c -0.4889,-0.48888 -0.87066,-1.83888 -0.84835,-3 0.0333,-1.73374 0.29348,-1.67614 1.45555,0.32222 1.4357,2.46892 1.01948,4.30447 -0.6072,2.67778 z M 561.64268,182.66667 c 0,-2.56667 0.2744,-3.61667 0.60977,-2.33334 0.33536,1.28334 0.33536,3.38334 0,4.66667 -0.33537,1.28333 -0.60977,0.23333 -0.60977,-2.33333 z M 593.33335,120 c 0,-0.73333 0.56459,-1.33333 1.25464,-1.33333 0.69005,0 1.62547,0.6 2.07869,1.33333 0.45323,0.73333 -0.11133,1.33333 -1.25464,1.33333 -1.14328,0 -2.07869,-0.6 -2.07869,-1.33333 z M 166.41667,16.422515 c 0.96249,-0.385162 2.11249,-0.337792 2.55556,0.105266 0.44305,0.443056 -0.34445,0.758188 -1.75,0.700294 -1.55327,-0.06397 -1.8692,-0.379922 -0.80556,-0.805556 z m -29.75,-6.060222 c -8.8,-1.4586255 -17.5,-3.0034127 -19.33333,-3.432861 L 114,6.1486171 l 3.60126,-0.489893 c 4.25593,-0.5789521 24.51908,2.796127 33.06541,5.5074549 7.97765,2.530916 5.13404,2.367634 -14,-0.803886 z"
         id="path295" />
      <path
         style="fill:#0fc846;stroke-width:1.33333"
         d="m 644.66668,915.239 c -2.93333,-0.28107 -12.53333,-1.17159 -21.33333,-1.97892 -59.11847,-5.42369 -134.78467,-31.09387 -191.12289,-64.83948 -17.92897,-10.73915 -40.91505,-26.42245 -47.54378,-32.43892 -2.2,-1.99679 -5.01879,-4.16592 -6.26398,-4.82029 -7.5879,-3.98759 -54.29257,-50.1383 -65.49619,-64.71934 -13.70476,-17.83618 -24.50293,-34.78572 -33.87346,-53.17005 l -9.14338,-17.93867 -15.27817,-0.78338 c -12.18816,-0.62495 -16.49165,-1.39696 -21.27816,-3.81714 -13.05652,-6.60169 -15.16687,-10.2499 -26.64756,-46.06614 -13.82736,-43.13711 -34.80899,-109.26024 -37.93068,-119.53774 -1.92747,-6.34574 -4.23587,-12.11756 -5.12979,-12.82624 -0.89392,-0.70866 -4.02531,-2.04469 -6.95864,-2.96892 -16.38301,-5.16196 -31.32878,-16.30718 -36.67345,-27.34778 -3.059,-6.31906 -11.71948,-48.83094 -16.70469,-81.99868 -2.24188,-14.91571 -3.770495,-31.82636 -4.241362,-46.9209 -0.709015,-22.72881 -0.608409,-24.01012 2.724552,-34.70008 4.5113,-14.4693 11.44668,-24.40473 20.93691,-29.99361 4.01026,-2.36168 8.17768,-4.81844 9.26095,-5.45947 1.68914,-0.99956 1.44962,-2.66625 -1.68224,-11.70604 -2.0085,-5.7973 -3.64481,-11.29054 -3.63624,-12.20721 0.01,-1.03011 1.92527,-1.67551 5.01557,-1.68981 13.91956,-0.0644 42.04183,-10.22096 52.69247,-19.03016 10.52033,-8.70143 18.14787,-16.73982 20.73512,-21.85202 4.15849,-8.21686 5.97771,-22.20052 5.2706,-40.51334 -0.74315,-19.24636 -2.64517,-25.86861 -11.09903,-38.64315 C 192.03935,106.35163 171.25523,86.137373 160.64851,79.713012 138.7602,66.45552 114.50113,57.583515 92.000002,54.60694 76.868194,52.605219 47.672112,52.984099 33.333334,55.368261 8.3440744,59.52332 8.250402,59.522612 6.6695382,55.16672 5.9043602,53.058357 4.6254685,50.050917 3.827557,48.48352 2.0267333,44.946027 5.9744346,14.947773 8.5989341,12.226224 13.340303,7.3095261 109.93394,0.91168031 112.66667,5.3333333 c 0.52028,0.841825 -3.01415,1.3776616 -9.58798,1.4535844 -13.478838,0.1556704 -8.231885,1.6171918 13.58798,3.7848863 63.45391,6.303827 108.78342,35.905025 147.80295,96.518696 10.4798,16.2795 12.57645,20.3943 18.34604,36.00507 5.86913,15.88014 14.42585,26.73138 25.53568,32.3832 3.49896,1.78002 2.52907,0.33435 -5.12684,-7.64173 -10.58332,-11.02592 -17.67093,-21.92393 -15.60319,-23.99168 0.85975,-0.85975 4.68254,1.44292 11.0984,6.68517 20.72978,16.93783 41.51693,25.82788 63.94697,27.34827 15.19476,1.02996 18.54294,-0.21587 21.04713,-7.83143 2.65125,-8.06278 1.31791,-9.43462 -5.06461,-5.21086 -11.94864,7.90722 -26.0598,8.07882 -42.31586,0.51458 -4.58333,-2.1327 -8.33333,-4.14917 -8.33333,-4.48104 0,-0.33186 1.95,-0.6057 4.33333,-0.60854 8.29672,-0.009 25.72828,-4.43996 35,-8.89496 8.43652,-4.0537 24.66667,-17.8654 24.66667,-20.99111 0,-0.57316 0.92431,-1.04211 2.05401,-1.04211 1.53046,0 1.98832,1.27449 1.79631,5 -0.18889,3.66482 0.93272,6.89286 4.20019,12.08832 3.59886,5.7224 4.60161,8.90231 5.20369,16.50176 l 0.7458,9.41343 13.33333,0.25369 c 15.21835,0.28956 18.44635,1.51027 27.26989,10.31239 4.39776,4.38709 8.9169,12.21516 18.92061,32.77425 7.22856,14.85579 13.14284,27.31618 13.14284,27.68976 0,0.37359 4.73845,11.31886 10.52988,24.32283 5.79144,13.00396 13.00509,29.64357 16.03035,36.97691 11.78485,28.56692 18.46109,37.62744 33.43977,45.38204 8.18389,4.23686 8.42288,4.49045 4.29032,4.55238 -2.40699,0.036 -9.15745,-1.77821 -15.00103,-4.03173 -8.28388,-3.1946 -11.98677,-5.53595 -16.80709,-10.62711 -9.50819,-10.04244 -11.51835,-13.56744 -31.44285,-55.13768 -37.55389,-78.3519 -42.72419,-87.47002 -52.12942,-91.9331 -8.64544,-4.10254 -17.47132,-2.9245 -43.94097,5.86502 -24.85762,8.25423 -31.70763,11.7367 -37.53463,19.0822 -1.82432,2.29972 -7.24335,8.35622 -12.04231,13.45888 -8.52956,9.06939 -10.0446,11.3891 -7.43842,11.3891 2.5316,0 10.9209,8.51302 13.67212,13.87376 1.54108,3.00276 10.46877,28.25957 19.83933,56.12624 25.91025,77.05328 29.45448,85.30926 39.21103,91.33914 5.3978,3.33603 10.13364,3.38547 14.13232,0.14754 4.20138,-3.40208 3.99574,-5.89744 -3.96807,-48.15335 -3.66253,-19.43333 -9.74016,-55.73333 -13.50584,-80.66667 -3.76567,-24.93333 -7.70144,-49.80833 -8.74616,-55.27776 -1.04471,-5.46944 -1.45447,-10.33554 -0.91057,-10.81358 1.32732,-1.16658 22.67637,-5.24432 27.44985,-5.24303 5.53272,10e-4 10.59035,3.50389 15.16637,10.50264 4.81444,7.36336 19.43431,36.39444 37.10009,73.67068 25.12561,53.01711 25.65508,55.25871 16.2726,68.89365 -3.11667,4.52926 -10.0798,13.92027 -15.47363,20.86892 -10.47916,13.4999 -13.38884,19.57404 -13.44393,28.06515 -0.0449,6.92052 2.58066,23.54171 8.42484,53.33333 2.58941,13.2 6.24084,31.8 8.11426,41.33334 3.67666,18.70948 9.275,42.77676 12.71615,54.66666 4.72883,16.33908 7.74131,28.03211 7.32833,28.44508 -1.27301,1.27302 -3.1398,-1.60292 -4.4703,-6.88685 -1.9296,-7.66313 -12.2487,-19.31039 -10.95642,-12.36661 3.71618,19.96805 4.43494,25.23249 4.20628,30.80838 -0.15036,3.66667 -0.72674,7.1263 -1.28086,7.68806 -1.14871,1.16454 -11.72106,-39.48575 -22.2858,-85.68806 -9.46448,-41.39053 -9.38892,-41.15706 -15.19891,-46.96705 -5.81458,-5.81457 -11.16208,-6.59975 -15.76194,-2.31433 -4.51204,4.2036 -3.73237,9.78288 5.66396,40.53114 10.4849,34.31035 19.83059,66.09422 24.9199,84.75024 4.45783,16.34122 6.98972,20.40434 13.29364,21.33334 5.28913,0.77945 6.09955,2.21424 15.96467,28.26418 15.89242,41.96572 36.20957,76.37467 63.19398,107.02476 12.95591,14.7159 34.57034,36.02106 42.65129,42.041 3.7003,2.75656 10.62782,8.72166 15.39449,13.25574 4.76667,4.53409 9.76747,8.85546 11.11288,9.60305 1.34541,0.74759 3.29225,3.38412 4.32632,5.85897 1.03405,2.47486 6.41583,8.94804 11.95948,14.38487 6.20655,6.08695 10.21172,11.12655 10.42384,13.11601 0.18945,1.77699 0.75917,3.90191 1.26604,4.72204 1.31087,2.12102 52.08916,18.33696 69.57811,22.21963 8.06667,1.79084 18.26667,3.65319 22.66667,4.13852 4.4,0.48533 15.8,2.12557 25.33333,3.64497 14.07829,2.24376 20.58837,2.60514 34.66667,1.92431 25.47285,-1.23188 54,-5.94208 54,-8.91611 0,-0.70506 -1.95,-1.29113 -4.33333,-1.30236 -2.38334,-0.0107 -5.23334,-0.60204 -6.33334,-1.31292 -2.86849,-1.85376 3.96547,-1.63857 14,0.44083 6.52356,1.35185 8.07646,2.18572 8.41424,4.51828 0.53416,3.68844 0.26088,3.82139 -29.85413,14.52413 -20.89499,7.426 -27.28734,9.13275 -37.22678,9.93956 -6.6,0.53574 -19.2,2.21698 -28,3.73608 -31.89916,5.50663 -59.59217,8.24032 -88.66667,8.75267 -15.76666,0.27783 -31.06666,0.27519 -34,-0.005 z m 94.00001,-24.60443 c 27.40438,-1.66872 34.486,-3.22556 20,-4.39686 -5.5,-0.44472 -19.26446,-1.14916 -30.5877,-1.56544 -58.37705,-2.14612 -111.84808,-11.50236 -165.25815,-28.9165 -76.03005,-24.78929 -137.9941,-61.11849 -189.14248,-110.8933 -30.67502,-29.85124 -47.15047,-51.88187 -62.96527,-84.1958 -5.74242,-11.73334 -11.85204,-22.64336 -13.57692,-24.24452 -4.73167,-4.39223 -8.71506,-5.45544 -26.60574,-7.10135 -9.01356,-0.82923 -17.44788,-2.07477 -18.74293,-2.76787 -3.03101,-1.62214 -26.63209,-72.6762 -51.17133,-154.05778 -4.1974,-13.92019 -9.03751,-18.64031 -24.33978,-23.73644 -12.31884,-4.10255 -20.55295,-9.51422 -23.68144,-15.56407 -3.77437,-7.29881 -12.0418,-50.61981 -15.24084,-79.86131 -4.38069,-40.04272 -4.67227,-41.3194 -9.35657,-40.96654 -2.51731,0.18962 -2.6642,1.16192 -2.6642,17.63429 0,25.66335 9.31006,93.37607 14.88866,108.28621 3.64104,9.73154 11.43895,16.22862 26.08794,21.73602 6.42953,2.41722 13.00902,5.24952 14.62109,6.29397 3.41748,2.2142 4.21436,4.31168 15.07642,39.68272 15.87449,51.69349 40.35489,124.81004 43.20644,129.04633 4.26116,6.33046 8.88438,7.89404 26.77109,9.05411 8.88196,0.57605 17.76213,1.78235 19.73372,2.68065 2.31649,1.05547 4.64985,4.03648 6.59545,8.42611 15.60642,35.21075 29.05511,55.47316 57.31117,86.34765 30.01818,32.7999 77.07618,67.9577 120.65233,90.14131 69.20474,35.23053 140.25223,54.68483 215.0557,58.88676 26.7823,1.50444 29.43291,1.507 53.33334,0.0516 z M 347.70333,672.59107 c 1.62984,-1.14159 2.94132,-3.39159 2.91439,-5 -0.0269,-1.60843 -5.05182,-14.9244 -11.16642,-29.59107 -12.53008,-30.055 -16.11109,-35.33333 -23.97141,-35.33333 -6.8924,0 -7.28452,2.53488 -2.2396,14.47834 2.36696,5.60358 7.90275,19.18832 12.30177,30.18832 5.50414,13.76339 9.21984,21.14338 11.91579,23.66667 4.50621,4.21761 6.13453,4.47048 10.24548,1.59107 z m -45.7212,-72.91918 c -6.46719,-22.51108 -38.00387,-98.76125 -40.01526,-96.74986 -0.80098,0.80098 17.29515,54.36778 24.9127,73.74464 7.52446,19.14012 17.71394,40.14708 18.2172,37.55717 0.23654,-1.21736 -1.16504,-7.76573 -3.11464,-14.55195 z m -132.9575,-348.4022 c 5.90424,-2.46694 10.51395,-6.5621 13.20037,-11.72693 2.78826,-5.36057 0.85843,-6.29057 -3.22009,-1.55179 -1.8892,2.19503 -6.28345,5.79503 -9.76501,8 -12.36652,7.83204 -11.62575,7.1756 -8.19707,7.26395 1.67355,0.0432 5.26536,-0.85023 7.9818,-1.98523 z m 643.64206,619.30256 c -7.24551,-1.5427 -13.78468,-3.67288 -11.33334,-3.69188 1.1,-0.008 8.3,1.08159 16,2.42248 11.0901,1.93124 12.61434,2.43455 7.33334,2.42148 -3.66667,-0.009 -9.06667,-0.52752 -12,-1.15208 z m -21.33334,-5.23892 c -1.04916,-1.69758 2.03984,-1.69758 4.66667,0 1.62597,1.05079 1.45367,1.29632 -0.92131,1.31292 -1.60672,0.0112 -3.29213,-0.57958 -3.74536,-1.31292 z m -46.79718,-73.24178 c -9.93802,-1.58519 -15.34498,-3.55444 -33.72843,-12.28414 -26.51103,-12.58921 -31.71034,-13.84096 -56.53348,-13.61069 -11.58251,0.10747 -23.23666,0.60385 -25.89812,1.10315 -4.7055,0.88276 -5.13618,0.60093 -15.60758,-10.21346 -23.10358,-23.86032 -48.95391,-57.832 -64.35516,-84.57353 C 518.70301,620.92607 499.1048,563.90387 478.81085,470 c -7.01584,-32.46356 -9.87757,-49.06667 -10.01286,-58.09241 -0.14644,-9.76867 -0.29051,-9.47732 17.02661,-34.43275 5.03685,-7.25853 10.32117,-16.40977 11.74295,-20.33609 1.96681,-5.43152 2.40473,-6.02272 1.83112,-2.47208 -1.03007,6.3762 -5.75892,15.20989 -15.41672,28.79906 -4.4758,6.29776 -9.43158,14.1134 -11.01283,17.36808 -2.87271,5.91291 -2.87311,5.92891 -0.50567,20.20856 5.50178,33.18488 16.96396,83.31399 26.89519,117.6243 12.26208,42.36293 25.51017,80.06737 28.48096,81.05764 0.83381,0.27793 6.624,-1.68858 12.86707,-4.37003 9.72569,-4.17727 11.96741,-4.68781 15.65553,-3.56552 2.36747,0.72043 8.34467,1.67837 13.28267,2.12879 4.93801,0.4504 10.33801,1.36518 12,2.03284 2.92,1.17301 2.89828,1.21676 -0.64485,1.29842 -4.47444,0.1032 -4.95242,2.75119 -0.49659,2.75119 1.74353,0 3.917,0.9 4.82992,2 0.91292,1.1 3.00547,2 4.65012,2 1.64464,0 4.42117,1.09047 6.17007,2.42327 1.74889,1.3328 5.03096,3.16465 7.29348,4.07077 2.26252,0.90613 6.04956,3.41565 8.41562,5.57673 2.36608,2.16108 5.06034,3.92923 5.98724,3.92923 3.93207,0 13.3782,14.79679 17.97434,28.15569 4.29786,12.49195 4.78874,22.10894 1.61013,31.5445 -3.68872,10.94981 -3.52207,13.17916 1.56567,20.9427 5.22552,7.97382 5.57174,8.0637 37.72458,9.79252 24.62137,1.32387 31.20094,2.99487 60.94682,15.4785 16.51997,6.93302 28.2466,9.16816 43.66193,8.32212 20.14686,-1.10572 37.09422,-7.36238 51.31323,-18.94392 4.09303,-3.33382 7.95899,-5.74191 8.59102,-5.35128 1.67806,1.03709 -0.79835,10.9557 -4.80278,19.23614 -7.1408,14.76598 -28.61187,32.25384 -48.4348,39.44944 -10.97649,3.98439 -30.46684,5.53826 -43.46385,3.46514 z M 573.33335,617.48884 c 0,-0.6478 -1.2,-1.49163 -2.66667,-1.87517 -2.62093,-0.68539 -3.52579,0.4161 -1.77777,2.1641 1.29351,1.29352 4.44444,1.08867 4.44444,-0.28893 z m 229.33334,81.71699 c 0,-0.4368 1.21262,-2.49715 2.69473,-4.57858 9.04684,-12.70512 9.60565,-37.39808 1.12019,-49.49974 -3.65236,-5.20888 -3.10051,-6.46084 2.8479,-6.46084 4.23618,0 6.4084,0.97473 10.58876,4.75144 16.50614,14.91229 12.07135,46.42232 -7.69598,54.68165 -4.66962,1.95108 -9.5556,2.51664 -9.5556,1.10607 z m -76.8063,-50.6208 c -1.08278,-4.31412 3.19399,-17.06194 9.06254,-27.01279 5.60184,-9.49867 19.75417,-23.56772 29.63573,-29.46139 4.20115,-2.50569 13.14411,-6.67874 19.87324,-9.27346 11.17587,-4.30934 13.45775,-4.72283 26.36475,-4.77752 13.57217,-0.0575 14.49325,0.1248 23.33333,4.61761 7.133,3.62524 10.17819,6.13368 13.53671,11.15068 2.38333,3.56027 4.33333,7.6938 4.33333,9.18563 0,4.2047 -5.18674,17.42525 -8.43414,21.49788 l -2.91975,3.66172 -5.98972,-3.24716 c -9.07844,-4.92164 -20.54891,-6.74706 -37.01526,-5.8906 -23.3749,1.21577 -41.29589,8.82153 -63.60946,26.99618 l -7.31643,5.95931 z M 615.33335,335.28584 c -22.57877,-4.20292 -55.95051,-17.75576 -74.539,-30.27159 -11.93454,-8.03564 -29.10878,-25.30262 -36.68447,-36.88257 -7.54165,-11.52791 -14.19485,-27.22147 -16.30848,-38.46843 -2.34592,-12.48309 -0.72511,-31.54816 3.54503,-41.69878 5.03302,-11.96411 11.88749,-21.30862 19.8761,-27.09658 3.72762,-2.70074 10.3511,-7.98004 14.71884,-11.73174 8.66651,-7.44416 10.75496,-6.96502 5.55379,1.27418 -7.93957,12.57711 -10.36199,34.59631 -5.74891,52.25634 5.09587,19.50821 20.35006,41.99312 39.31514,57.95113 13.32612,11.21315 34.6934,23.99271 49.27008,29.46792 28.32825,10.64052 58.83327,8.7954 78.13584,-4.72609 4.20812,-2.9478 8.22448,-5.35963 8.92526,-5.35963 4.02425,0 -1.24716,16.05441 -9.26373,28.21315 -5.15449,7.81784 -8.57454,11.29232 -16.05697,16.31248 -5.22911,3.50834 -12.93445,7.58696 -17.12299,9.06357 -10.10506,3.5624 -29.53249,4.31812 -43.61553,1.69664 z m 28.85493,-81.77683 c -1.27549,-0.83006 -1.5648,-2.7078 -0.97742,-6.34402 1.98158,-12.26736 -3.93068,-29.68131 -14.46976,-42.61912 -3.34092,-4.10134 -6.07442,-8.50663 -6.07442,-9.78952 0,-1.41891 2.55016,-3.72051 6.51072,-5.87612 3.58091,-1.94896 6.81222,-4.69644 7.1807,-6.10551 0.57133,-2.18479 1.52657,-2.45477 6.48926,-1.83403 13.59411,1.70036 26.4246,11.20458 33.28816,24.65826 4.19375,8.22042 6.88594,20.72101 5.89119,27.35448 -1.12069,7.47334 -8.02303,15.44556 -15.77813,18.22377 -7.08896,2.53959 -19.69374,3.87193 -22.0603,2.33181 z M 166.41667,16.422515 c 0.96249,-0.385162 2.11249,-0.337792 2.55556,0.105266 0.44305,0.443056 -0.34445,0.758188 -1.75,0.700294 -1.55327,-0.06397 -1.8692,-0.379922 -0.80556,-0.805556 z m -29.75,-6.060222 c -8.8,-1.4586255 -17.5,-3.0034127 -19.33333,-3.432861 L 114,6.1486171 l 3.60126,-0.489893 c 4.25593,-0.5789521 24.51908,2.796127 33.06541,5.5074549 7.97765,2.530916 5.13404,2.367634 -14,-0.803886 z"
         id="path293" />
      <path
         style="fill:#025b54;stroke-width:1.33333"
         d="m 644.66668,915.239 c -2.93333,-0.28107 -12.53333,-1.17159 -21.33333,-1.97892 -59.11847,-5.42369 -134.78467,-31.09387 -191.12289,-64.83948 -17.92897,-10.73915 -40.91505,-26.42245 -47.54378,-32.43892 -2.2,-1.99679 -5.01879,-4.16592 -6.26398,-4.82029 -7.5879,-3.98759 -54.29257,-50.1383 -65.49619,-64.71934 -13.70476,-17.83618 -24.50293,-34.78572 -33.87346,-53.17005 l -9.14338,-17.93867 -15.27817,-0.78338 c -12.18816,-0.62495 -16.49165,-1.39696 -21.27816,-3.81714 -13.05652,-6.60169 -15.16687,-10.2499 -26.64756,-46.06614 -13.82736,-43.13711 -34.80899,-109.26024 -37.93068,-119.53774 -1.92747,-6.34574 -4.23587,-12.11756 -5.12979,-12.82624 -0.89392,-0.70866 -4.02531,-2.04469 -6.95864,-2.96892 -16.38301,-5.16196 -31.32878,-16.30718 -36.67345,-27.34778 -3.059,-6.31906 -11.71948,-48.83094 -16.70469,-81.99868 -2.24188,-14.91571 -3.770495,-31.82636 -4.241362,-46.9209 -0.709015,-22.72881 -0.608409,-24.01012 2.724552,-34.70008 4.5113,-14.4693 11.44668,-24.40473 20.93691,-29.99361 4.01026,-2.36168 8.17768,-4.81844 9.26095,-5.45947 1.68914,-0.99956 1.44962,-2.66625 -1.68224,-11.70604 -2.0085,-5.7973 -3.64481,-11.20438 -3.63624,-12.01574 0.009,-0.85382 3.98754,-1.84436 9.44516,-2.35159 17.15784,-1.59465 40.30078,-11.21743 51.62236,-21.46445 3.87859,-3.51044 7.41071,-6.0239 7.84917,-5.58543 1.42379,1.4238 -10.20109,17.79163 -17.61819,24.80641 -7.56434,7.15404 -18.9447,13.35408 -24.61626,13.41098 -5.389,0.054 -7.15319,1.80568 -4.3624,4.3313 6.17377,5.58719 14.71573,5.916 24.466,0.94179 6.05822,-3.09068 10.92214,-8.76565 15.83814,-18.47916 2.07875,-4.1074 7.75461,-14.01549 12.61301,-22.018 12.17606,-20.05579 14.60432,-28.58081 13.82933,-48.55155 -0.4678,-12.05448 -1.2316,-16.91837 -3.38649,-21.5651 -1.53036,-3.3 -3.19795,-7.5 -3.70575,-9.33334 C 205.7531,122.96416 192.24986,105.52064 176.11394,91.335233 151.32415,69.542051 114.8854,55.475633 78.239541,53.552869 58.503632,52.517349 38.669585,53.650508 24.190715,56.640785 10.164525,59.537571 8.1824103,59.352624 6.6061516,55 5.8758362,52.983333 4.5932692,49.990752 3.7560028,48.349819 c -1.141747,-2.237675 -1.1385791,-5.237516 0.012667,-12 C 4.6129111,31.390752 5.6862384,24.1938 6.1538468,20.356593 7.1619234,12.084293 9.577926,9.2763727 13.02501,12.370807 c 1.269578,1.139696 4.708324,3.052162 7.641657,4.249926 2.984434,1.218631 6.555126,4.057208 8.107492,6.445178 1.525788,2.347082 3.475789,4.117422 4.333334,3.934089 0.857547,-0.183333 1.559175,0.132664 1.559175,0.702216 0,0.569552 2.55,0.824821 5.666666,0.567265 16.336586,-1.350029 56.059154,-0.0802 72.308876,2.311536 40.20281,5.917291 75.72957,22.897892 100.3324,47.955512 21.08914,21.478971 36.17504,48.035981 49.70397,87.498191 9.72505,28.36679 13.84912,36.77384 21.85983,44.56213 4.17934,4.0633 5.59153,6.24415 4.48585,6.92751 -3.23909,2.00187 0.74459,3.12737 10.07101,2.84535 10.68502,-0.3231 12.90474,-1.87764 12.90474,-9.03758 0,-3.00366 -1.68144,-6.12804 -6.05595,-11.2529 -3.33077,-3.90211 -7.89071,-9.76146 -10.13317,-13.02078 -3.87878,-5.6376 -13.14422,-24.38261 -13.14422,-26.59218 0,-0.57302 3.15,2.0307 7,5.78602 7.92007,7.72532 31.72445,23.58783 37.44673,24.95338 4.08909,0.9758 8.88661,-0.0248 8.88661,-1.85344 0,-0.62411 -2.21532,-2.50388 -4.92293,-4.17727 -5.77872,-3.57145 -18.17695,-14.30293 -18.93854,-16.39256 -0.29047,-0.79699 0.60953,-0.47655 2,0.71211 1.39048,1.18864 6.12814,3.48633 10.52814,5.10597 4.4,1.61965 11.37848,4.99712 15.50774,7.50549 8.51142,5.17039 11.31362,5.42964 26.01631,2.40702 13.43471,-2.76195 17.57351,-4.95638 19.91432,-10.55872 1.92837,-4.61527 2.60727,-16.79752 1.02429,-18.38048 -0.47886,-0.47887 -3.51509,1.56688 -6.74718,4.54612 -7.58418,6.99085 -13.14735,9.23209 -22.67266,9.13417 -7.84312,-0.0807 -23.11996,-4.72776 -23.95304,-7.28637 -0.24838,-0.76287 4.90547,-2.36366 11.67651,-3.62674 16.37173,-3.054 29.15108,-9.35861 38.90037,-19.19124 4.21667,-4.2527 7.66667,-8.20114 7.66667,-8.77429 0,-0.57316 0.92431,-1.04211 2.05401,-1.04211 1.53046,0 1.98832,1.27449 1.79631,5 -0.18889,3.66482 0.93272,6.89286 4.20019,12.08832 3.59886,5.7224 4.60161,8.90231 5.20369,16.50176 l 0.7458,9.41343 13.33333,0.25369 c 15.21831,0.28956 18.44624,1.51023 27.27003,10.31239 4.36144,4.35073 8.84795,12.07305 18.30075,31.49979 6.88755,14.15481 13.64713,28.58842 15.02128,32.07468 1.37416,3.48625 5.61623,13.20504 9.42681,21.59729 3.81059,8.39227 10.17346,23.05865 14.13971,32.59199 13.73691,33.01818 19.67833,41.3594 35.17476,49.38204 8.04543,4.16518 8.36151,4.4915 4.40961,4.55238 -12.41788,0.19128 -31.26253,-11.30626 -40.47334,-24.69372 -2.1746,-3.16069 -14.98247,-28.73285 -28.46192,-56.82704 -38.14862,-79.51024 -40.21649,-82.41366 -58.69639,-82.41366 -8.8762,0 -53.32936,14.10004 -60.51798,19.19561 -2.42368,1.718 -9.02368,8.22981 -14.66666,14.47071 -12.80638,14.16326 -17.03232,17.6538 -22.92666,18.93689 -2.56667,0.55871 -19.36667,1.41051 -37.33333,1.89287 -38.71376,1.03937 -35.61416,-0.0453 -64.17878,22.46042 -9.78606,7.71036 -19.18829,14.54939 -20.89384,15.19784 -4.03062,1.53244 -19.76829,1.43534 -31.59405,-0.19493 -5.13334,-0.70768 -13.10143,-1.67649 -17.70688,-2.15295 l -8.37355,-0.86625 -5.78988,6.04264 c -8.03698,8.38785 -9.42978,14.90044 -8.32859,38.94347 1.86623,40.74646 11.77354,103.99004 18.31752,116.93041 3.80596,7.52609 12.14111,13.71916 24.94079,18.53115 6.38399,2.40005 12.92621,5.21828 14.53828,6.26273 3.41748,2.2142 4.21436,4.31168 15.07642,39.68272 15.87449,51.69349 40.35489,124.81004 43.20644,129.04633 4.26116,6.33046 8.88438,7.89404 26.77109,9.05411 8.88196,0.57605 17.76213,1.78235 19.73372,2.68065 2.31649,1.05547 4.64985,4.03648 6.59545,8.42611 8.00239,18.05476 15.98462,33.15169 22.97838,43.45947 67.23188,99.08985 195.11168,171.25029 334.36131,188.67452 28.57471,3.57554 62.17135,4.85649 87.67951,3.34298 28.5864,-1.69614 36.06642,-3.25518 21.33334,-4.44646 -5.5,-0.44472 -19.26446,-1.14916 -30.5877,-1.56544 -58.37705,-2.14612 -111.84808,-11.50236 -165.25815,-28.9165 -76.03005,-24.78929 -137.9941,-61.11849 -189.14248,-110.8933 -30.67502,-29.85124 -47.15047,-51.88187 -62.96527,-84.1958 -5.74242,-11.73334 -11.85204,-22.64336 -13.57692,-24.24452 -4.73167,-4.39223 -8.71506,-5.45544 -26.60574,-7.10135 -9.01356,-0.82923 -17.44788,-2.07477 -18.74293,-2.76787 C 249.41513,625.28328 227.98585,562.37057 211.40609,508 c -4.13702,-13.56667 -9.00047,-29.46667 -10.80766,-35.33333 -4.7812,-15.52118 -7.25022,-17.85234 -26.11447,-24.65627 -13.4558,-4.85321 -19.99685,-10.47999 -23.07464,-19.84936 -5.54157,-16.86963 -14.07598,-85.78124 -14.07598,-113.65741 0,-17.12743 1.10525,-20.65396 7.28202,-23.23479 4.9442,-2.06581 23.34936,-2.59511 37.78255,-1.08655 l 8.12243,0.84896 0.82937,7.48438 c 1.51723,13.69166 4.75772,29.96688 9.39547,47.18833 2.52349,9.37051 4.58816,17.30064 4.58816,17.62251 0,2.02881 18.36195,20.41297 24.23232,24.26162 3.90556,2.56051 8.04825,5.50067 9.206,6.5337 1.15775,1.03301 2.81967,1.87821 3.69316,1.87821 0.87349,0 4.01345,1.53101 6.97769,3.40225 8.83503,5.57731 21.00354,8.61335 37.46255,9.3469 8.24416,0.36742 15.35303,1.25641 15.79747,1.97554 1.26554,2.04768 19.84245,2.50172 27.96415,0.68348 4.3968,-0.98433 8.91029,-1.21165 11.27142,-0.56768 2.16595,0.59074 5.40544,0.70579 7.19887,0.25567 2.28849,-0.57437 2.97507,-0.35611 2.30257,0.732 -0.56516,0.91445 0.87204,0.67763 3.50379,-0.57736 2.45409,-1.17028 5.46788,-3.88045 6.69732,-6.02263 2.90577,-5.06302 7.26668,-5.17152 9.1718,-0.22817 1.60468,4.16376 6.70724,22.89639 23.85879,87.59079 40.58662,153.08993 74.07476,224.21437 135.25592,287.26604 30.88355,31.82776 63.3833,54.67302 100.99876,70.9957 25.5951,11.10663 63.5343,22.55216 93.74077,28.27982 39.21392,7.43561 92.16406,7.1914 121,-0.55808 6.14801,-1.65224 6.52957,-3.90039 0.66667,-3.92802 -2.38334,-0.0107 -5.23334,-0.60204 -6.33334,-1.31292 -2.86849,-1.85376 3.96547,-1.63857 14,0.44083 6.52356,1.35185 8.07646,2.18572 8.41424,4.51828 0.53416,3.68844 0.26088,3.82139 -29.85413,14.52413 -20.89499,7.426 -27.28734,9.13275 -37.22678,9.93956 -6.6,0.53574 -19.2,2.21698 -28,3.73608 -31.89916,5.50663 -59.59217,8.24032 -88.66667,8.75267 -15.76666,0.27783 -31.06666,0.27519 -34,-0.005 z M 347.70333,672.59107 c 1.62984,-1.14159 2.94132,-3.39159 2.91439,-5 -0.0269,-1.60843 -5.05182,-14.9244 -11.16642,-29.59107 -12.53008,-30.055 -16.11109,-35.33333 -23.97141,-35.33333 -6.8924,0 -7.28452,2.53488 -2.2396,14.47834 2.36696,5.60358 7.90275,19.18832 12.30177,30.18832 5.50414,13.76339 9.21984,21.14338 11.91579,23.66667 4.50621,4.21761 6.13453,4.47048 10.24548,1.59107 z m -45.7212,-72.91918 c -6.46719,-22.51108 -38.00387,-98.76125 -40.01526,-96.74986 -0.80098,0.80098 17.29515,54.36778 24.9127,73.74464 7.52446,19.14012 17.71394,40.14708 18.2172,37.55717 0.23654,-1.21736 -1.16504,-7.76573 -3.11464,-14.55195 z m 523.70993,271.40412 c 1.2973,-0.33805 3.0973,-0.31582 4,0.0495 0.90271,0.36524 -0.1587,0.64183 -2.3587,0.61465 -2.2,-0.0272 -2.93859,-0.326 -1.6413,-0.66405 z m -16.35871,-1.74268 c -2.69588,-0.86337 -2.82337,-1.07824 -0.66666,-1.12358 1.46666,-0.0308 5.06666,0.44036 8,1.04709 l 5.33333,1.10316 -4.66667,0.0204 c -2.56666,0.0107 -6.16666,-0.45996 -8,-1.04709 z m -6.91666,-2.24414 c 0.96249,-0.38516 2.1125,-0.3378 2.55556,0.1052 0.44305,0.44305 -0.34446,0.75818 -1.75,0.70029 -1.55327,-0.064 -1.8692,-0.37992 -0.80556,-0.80555 z m -10.41667,-1.75586 c -1.72359,-1.11386 -1.68839,-1.29532 0.25464,-1.31292 1.24005,-0.0107 2.62547,0.57959 3.07869,1.31292 1.04291,1.68747 -0.72217,1.68747 -3.33333,0 z m -47.46385,-73.24178 c -9.93802,-1.58519 -15.34498,-3.55444 -33.72843,-12.28414 -26.51103,-12.58921 -31.71034,-13.84096 -56.53348,-13.61069 -11.58251,0.10747 -23.23666,0.60385 -25.89812,1.10315 -4.7055,0.88276 -5.13618,0.60093 -15.60758,-10.21346 -23.10358,-23.86032 -48.95391,-57.832 -64.35516,-84.57353 C 527.32019,635.88825 513.48055,601.60699 497.33907,546 c -9.89594,-34.09127 -25.14399,-103.03316 -28.6386,-129.48544 -1.33919,-10.13685 0.82373,-15.53373 13.14364,-32.79563 6.12924,-8.58792 12.43654,-18.18792 14.01625,-21.33333 1.57969,-3.14541 2.48895,-4.21893 2.02056,-2.3856 -1.09884,4.30096 -4.53223,10.05137 -14.20508,23.79144 -4.30745,6.11863 -9.12547,13.78769 -10.70672,17.04237 -2.87271,5.91291 -2.87311,5.92891 -0.50567,20.20856 5.50178,33.18488 16.96396,83.31399 26.89519,117.6243 12.26208,42.36293 25.51017,80.06737 28.48096,81.05764 0.83381,0.27793 6.624,-1.68858 12.86707,-4.37003 9.72569,-4.17727 11.96741,-4.68781 15.65553,-3.56552 2.36747,0.72043 8.34467,1.67837 13.28267,2.12879 4.93801,0.4504 10.33801,1.36518 12,2.03284 2.92,1.17301 2.89828,1.21676 -0.64485,1.29842 -4.47444,0.1032 -4.95242,2.75119 -0.49659,2.75119 1.74353,0 3.917,0.9 4.82992,2 0.91292,1.1 3.00547,2 4.65012,2 1.64464,0 4.42117,1.09047 6.17007,2.42327 1.74889,1.3328 5.03096,3.16465 7.29348,4.07077 2.26252,0.90613 6.04956,3.41565 8.41562,5.57673 2.36608,2.16108 5.06034,3.92923 5.98724,3.92923 3.93207,0 13.3782,14.79679 17.97434,28.15569 4.29786,12.49195 4.78874,22.10894 1.61013,31.5445 -3.68872,10.94981 -3.52207,13.17916 1.56567,20.9427 5.22552,7.97382 5.57174,8.0637 37.72458,9.79252 24.62137,1.32387 31.20094,2.99487 60.94682,15.4785 16.51997,6.93302 28.2466,9.16816 43.66193,8.32212 20.14686,-1.10572 37.09422,-7.36238 51.31323,-18.94392 4.09303,-3.33382 7.95899,-5.74191 8.59102,-5.35128 1.67806,1.03709 -0.79835,10.9557 -4.80278,19.23614 -7.1408,14.76598 -28.61187,32.25384 -48.4348,39.44944 -10.97649,3.98439 -30.46684,5.53826 -43.46385,3.46514 z M 573.33335,617.48884 c 0,-0.6478 -1.2,-1.49163 -2.66667,-1.87517 -2.62093,-0.68539 -3.52579,0.4161 -1.77777,2.1641 1.29351,1.29352 4.44444,1.08867 4.44444,-0.28893 z m 229.33334,81.71699 c 0,-0.4368 1.21262,-2.49715 2.69473,-4.57858 9.04684,-12.70512 9.60565,-37.39808 1.12019,-49.49974 -3.65236,-5.20888 -3.10051,-6.46084 2.8479,-6.46084 4.23618,0 6.4084,0.97473 10.58876,4.75144 16.50614,14.91229 12.07135,46.42232 -7.69598,54.68165 -4.66962,1.95108 -9.5556,2.51664 -9.5556,1.10607 z m -76.8063,-50.6208 c -1.08278,-4.31412 3.19399,-17.06194 9.06254,-27.01279 5.60184,-9.49867 19.75417,-23.56772 29.63573,-29.46139 4.20115,-2.50569 13.14411,-6.67874 19.87324,-9.27346 11.17587,-4.30934 13.45775,-4.72283 26.36475,-4.77752 13.57217,-0.0575 14.49325,0.1248 23.33333,4.61761 7.133,3.62524 10.17819,6.13368 13.53671,11.15068 2.38333,3.56027 4.33333,7.6938 4.33333,9.18563 0,4.2047 -5.18674,17.42525 -8.43414,21.49788 l -2.91975,3.66172 -5.98972,-3.24716 c -9.07844,-4.92164 -20.54891,-6.74706 -37.01526,-5.8906 -23.3749,1.21577 -41.29589,8.82153 -63.60946,26.99618 l -7.31643,5.95931 z M 498.77195,353.88889 c 0.064,-1.55326 0.37992,-1.8692 0.80554,-0.80556 0.38516,0.9625 0.3378,2.11251 -0.1052,2.55556 -0.44305,0.44306 -0.75818,-0.34445 -0.70029,-1.75 z m 116.5614,-18.60305 c -22.57877,-4.20292 -55.95051,-17.75576 -74.539,-30.27159 -11.93454,-8.03564 -29.10878,-25.30262 -36.68447,-36.88257 -7.54165,-11.52791 -14.19485,-27.22147 -16.30848,-38.46843 -2.34592,-12.48309 -0.72511,-31.54816 3.54503,-41.69878 5.03302,-11.96411 11.88749,-21.30862 19.8761,-27.09658 3.72762,-2.70074 10.3511,-7.98004 14.71884,-11.73174 8.66651,-7.44416 10.75496,-6.96502 5.55379,1.27418 -7.93957,12.57711 -10.36199,34.59631 -5.74891,52.25634 5.09587,19.50821 20.35006,41.99312 39.31514,57.95113 13.32612,11.21315 34.6934,23.99271 49.27008,29.46792 28.32825,10.64052 58.83327,8.7954 78.13584,-4.72609 4.20812,-2.9478 8.22448,-5.35963 8.92526,-5.35963 4.02425,0 -1.24716,16.05441 -9.26373,28.21315 -5.15449,7.81784 -8.57454,11.29232 -16.05697,16.31248 -5.22911,3.50834 -12.93445,7.58696 -17.12299,9.06357 -10.10506,3.5624 -29.53249,4.31812 -43.61553,1.69664 z m 28.85493,-81.77683 c -1.27549,-0.83006 -1.5648,-2.7078 -0.97742,-6.34402 1.98158,-12.26736 -3.93068,-29.68131 -14.46976,-42.61912 -3.34092,-4.10134 -6.07442,-8.50663 -6.07442,-9.78952 0,-1.41891 2.55016,-3.72051 6.51072,-5.87612 3.58091,-1.94896 6.81222,-4.69644 7.1807,-6.10551 0.57133,-2.18479 1.52657,-2.45477 6.48926,-1.83403 13.59411,1.70036 26.4246,11.20458 33.28816,24.65826 4.19375,8.22042 6.88594,20.72101 5.89119,27.35448 -1.12069,7.47334 -8.02303,15.44556 -15.77813,18.22377 -7.08896,2.53959 -19.69374,3.87193 -22.0603,2.33181 z"
         id="path291" />
      <path
         style="fill:#045313;stroke-width:1.33333"
         d="m 645.33335,913.9092 c -49.8158,-4.07641 -88.48787,-12.38569 -130.66667,-28.07575 -6.96667,-2.59152 -13.70852,-5.26421 -14.98191,-5.93932 -1.27338,-0.6751 -2.90844,-1.22746 -3.63345,-1.22746 -0.72501,0 -10.09021,-4.2 -20.81156,-9.33334 C 464.5184,864.2 455.48197,860 455.15881,860 c -0.7538,0 -28.81003,-16.57975 -35.82547,-21.17096 -23.81094,-15.58293 -45.73016,-32.78757 -67.84333,-53.251 -32.03211,-29.64235 -54.5019,-59.18692 -72.88156,-95.82892 -8.5405,-17.02644 -7.79504,-16.41579 -20.0394,-16.41579 -13.57292,0 -22.22954,-1.93688 -29.6287,-6.62928 C 220.87034,661.5862 217.2677,653.78413 204.60406,614 180.96382,539.73177 175.50886,522.51128 170.82379,507.36059 l -4.93927,-15.97275 -9.2756,-3.46121 c -19.92968,-7.43684 -28.95179,-14.19764 -35.14408,-26.33552 -4.42978,-8.6831 -15.10533,-64.79478 -19.45353,-102.2496 C 100.90509,349.81267 100,334.39364 100,325.077 c 0,-14.36025 0.50436,-18.52312 3.31263,-27.34151 3.96673,-12.45616 10.83784,-22.05854 20.05715,-28.02988 13.31429,-8.62366 12.39084,-6.54868 8.24283,-18.52156 -2.00406,-5.78456 -3.63675,-10.96738 -3.62818,-11.51738 0.009,-0.55 1.96557,-1.01042 4.34891,-1.02315 13.6597,-0.0729 40.83164,-10.16932 53.87841,-20.01972 l 7.48583,-5.65185 -2.51545,4.40625 C 184.58108,228.94105 165.703,245.43253 157,247.23895 c -11.72177,2.43298 -10.88382,1.94278 -8.26593,4.83553 7.89948,8.72883 26.24113,4.64724 34.69256,-7.72017 9.25107,-13.53755 27.6101,-47.3653 30.09707,-55.45587 3.67647,-11.96024 3.04529,-36.41697 -1.21035,-46.89844 -1.48873,-3.66667 -3.69268,-9.45067 -4.89766,-12.85333 C 204.27077,120.26596 198.8165,112.58709 185.9302,98.898047 165.70135,77.409028 139.79443,63.556529 104.4212,55.314961 84.285665,50.623605 48.975084,50.630409 25.200291,55.330227 13.177333,57.706933 8.0000002,57.868856 8.0000002,55.868172 c 0,-0.805839 -0.9659077,-3.50066 -2.1464618,-5.988493 C 3.8723182,45.704567 3.8854404,44.149391 6.0239932,29.678173 7.2982973,21.055177 8.8008638,13.493341 9.3630301,12.874091 11.149701,10.905999 25.795722,18.659755 28.774159,23.150547 30.299947,25.451079 32.249948,27.183333 33.107493,27 c 0.857547,-0.183333 1.559175,0.132664 1.559175,0.702216 0,0.569552 2.55,0.824821 5.666666,0.567265 16.336586,-1.350029 56.059154,-0.0802 72.308876,2.311536 40.20281,5.917291 75.72957,22.897892 100.3324,47.955512 21.08914,21.478971 36.17504,48.035981 49.70397,87.498191 9.72505,28.36679 13.84912,36.77384 21.85983,44.56213 4.17934,4.0633 5.59153,6.24415 4.48585,6.92751 -3.23909,2.00187 0.74459,3.12737 10.07101,2.84535 10.68502,-0.3231 12.90474,-1.87764 12.90474,-9.03758 0,-3.00366 -1.68144,-6.12804 -6.05595,-11.2529 -3.33077,-3.90211 -7.89071,-9.76146 -10.13317,-13.02078 -3.87878,-5.6376 -13.14422,-24.38261 -13.14422,-26.59218 0,-0.57302 3.15,2.0307 7,5.78602 7.92007,7.72532 31.72445,23.58783 37.44673,24.95338 4.08909,0.9758 8.88661,-0.0248 8.88661,-1.85344 0,-0.62411 -2.21532,-2.50388 -4.92293,-4.17727 -5.77872,-3.57145 -18.17695,-14.30293 -18.93854,-16.39256 -0.29047,-0.79699 0.60953,-0.47655 2,0.71211 1.39048,1.18864 6.12814,3.48633 10.52814,5.10597 4.4,1.61965 11.37848,4.99712 15.50774,7.50549 4.15011,2.52104 9.30394,4.5607 11.52406,4.5607 5.92346,0 24.39046,-4.01099 28.7399,-6.24224 5.18742,-2.66114 7.76999,-9.5258 7.28924,-19.37536 l -0.39428,-8.07819 -5.90734,4.94359 c -10.28311,8.60544 -15.30438,10.49093 -26.01744,9.76957 -5.1747,-0.34844 -11.80855,-1.69731 -14.74188,-2.99749 l -5.33334,-2.36396 11.55566,-2.36359 c 15.1714,-3.10315 28.85933,-10.25544 38.74444,-20.24495 4.19838,-4.24273 7.93338,-7.71405 8.3,-7.71405 0.36661,0 0.30509,1.80739 -0.13671,4.01643 -0.60488,3.02434 0.0468,5.24738 2.63831,9 5.16988,7.48622 7.24234,13.53054 7.39249,21.5601 0.0745,3.98376 0.77965,7.64135 1.56703,8.12796 0.78737,0.48663 5.7457,0.6107 11.01852,0.27572 20.97618,-1.33262 27.83427,3.89296 41.18648,31.38248 7.27332,14.97432 8.97231,19.53852 7.59084,20.39232 -2.22703,1.37638 -2.45211,1.13782 -2.79111,-2.95822 -0.26452,-3.19614 -0.41925,-3.24987 -4.08798,-1.41966 -3.45208,1.72212 -3.98935,1.66808 -5.67524,-0.5708 C 450.50088,218.97077 447.79627,212 448.83128,212 c 0.38089,0 -0.28483,-0.97736 -1.47937,-2.17192 -1.19456,-1.19456 -1.87363,-2.94927 -1.50904,-3.89937 0.36458,-0.9501 -0.93942,-2.77734 -2.89781,-4.06051 -1.95837,-1.28319 -4.47217,-3.38651 -5.5862,-4.67405 -1.11404,-1.28755 -4.35925,-3.88296 -7.21158,-5.76758 C 425.75248,188.5228 423.45621,188 415.09701,188 c -8.14417,0 -12.006,0.83335 -22.14727,4.7792 -6.75568,2.62855 -16.18306,5.99615 -20.94973,7.48355 -14.11709,4.40512 -17.29777,6.67684 -33.89408,24.2081 -14.24107,15.04334 -16.45155,16.85767 -21.97006,18.03279 -3.37473,0.71861 -19.93586,1.7388 -36.80253,2.26708 -25.67004,0.804 -31.62979,1.37192 -36.57779,3.48563 -6.90265,2.94869 -18.94316,11.3329 -34.50528,24.02721 -6.09569,4.97237 -12.60081,9.4216 -14.45584,9.88717 -3.26457,0.81936 -24.1358,0.0755 -46.83564,-1.66944 l -11.04121,-0.84869 -5.24152,5.50999 c -2.88284,3.03049 -6.0143,8.05865 -6.95879,11.1737 -2.30169,7.5912 -1.85273,41.00547 0.86939,64.70484 3.25655,28.35236 11.03588,71.58707 14.20733,78.95932 4.56305,10.60711 16.10724,19.1005 32.61636,23.99679 10.42823,3.09281 10.6802,3.54691 21.883,39.43753 18.75124,60.07367 41.28332,127.82015 43.95548,132.15946 4.48934,7.29021 7.8182,8.53745 27.72783,10.38889 10.09617,0.93885 19.38852,2.13396 20.64965,2.65577 1.26114,0.52183 3.36114,3.4412 4.66667,6.48751 15.49689,36.16019 35.988,65.7124 67.21984,96.94424 65.50511,65.50511 161.66446,114.49001 260.1884,132.54359 39.0756,7.16024 49.18109,7.97461 98.96547,7.97532 39.76922,5.6e-4 50.50953,-0.442 72.66666,-2.99431 31.9373,-3.67888 57.85071,-7.89619 63.8295,-10.38801 5.64367,-2.35215 6.83717,-2.35092 6.83717,0.007 0,1.16842 -4.41928,3.40834 -11.66666,5.91328 -6.41667,2.21783 -18.26667,6.49614 -26.33334,9.50735 -11.30031,4.21832 -17.72699,5.75941 -28,6.71429 -7.33333,0.68164 -18.43333,2.17122 -24.66667,3.31018 -27.9327,5.10386 -63.82474,8.76508 -90.66667,9.24856 -15.03333,0.27077 -30.03333,0.27137 -33.33333,0.001 z M 748.00002,790.52745 c -3.3,-0.65365 -8.70331,-1.7453 -12.00736,-2.42589 -3.30405,-0.6806 -14.14525,-5.1786 -24.09157,-9.99556 -25.30439,-12.2548 -34.02962,-14.31651 -60.22454,-14.2306 -11.54457,0.0379 -22.37095,0.4154 -24.0586,0.83897 -2.55832,0.64211 -5.17187,-1.40366 -15.7206,-12.30545 -52.18539,-53.93191 -83.36064,-109.50516 -108.53974,-193.48379 -8.50266,-28.35854 -21.19897,-79.40102 -20.3693,-81.89 0.23116,-0.6935 2.44698,7.33988 4.92406,17.85198 11.42074,48.46694 35.35962,123.31466 39.92723,124.8372 0.83381,0.27793 6.624,-1.68858 12.86707,-4.37003 9.72569,-4.17727 11.96741,-4.68781 15.65553,-3.56552 2.36747,0.72043 8.34467,1.67837 13.28267,2.12879 4.93801,0.4504 10.33801,1.36518 12,2.03284 2.92,1.17301 2.89828,1.21676 -0.64485,1.29842 -4.47444,0.1032 -4.95242,2.75119 -0.49659,2.75119 1.74353,0 3.917,0.9 4.82992,2 0.91292,1.1 3.00547,2 4.65012,2 1.64464,0 4.42117,1.09047 6.17007,2.42327 1.74889,1.3328 5.03096,3.16465 7.29348,4.07077 2.26252,0.90613 6.04956,3.41565 8.41562,5.57673 2.36608,2.16108 5.06034,3.92923 5.98724,3.92923 3.93207,0 13.3782,14.79679 17.97434,28.15569 4.29786,12.49195 4.78874,22.10894 1.61013,31.5445 -3.68872,10.94981 -3.52207,13.17916 1.56567,20.9427 5.22552,7.97382 5.57174,8.0637 37.72458,9.79252 24.62137,1.32387 31.20094,2.99487 60.94682,15.4785 16.51997,6.93302 28.2466,9.16816 43.66193,8.32212 20.18323,-1.10771 37.09151,-7.36018 51.38302,-19.00076 4.13143,-3.3651 7.70625,-5.91966 7.94407,-5.67682 1.36254,1.39142 -6.44242,20.6955 -10.72799,26.5336 -10.7789,14.68379 -35.24454,30.50347 -51.26576,33.14884 -12.29963,2.03087 -24.35555,2.53666 -30.66667,1.28656 z M 573.33335,617.48884 c 0,-0.6478 -1.2,-1.49163 -2.66667,-1.87517 -2.62093,-0.68539 -3.52579,0.4161 -1.77777,2.1641 1.29351,1.29352 4.44444,1.08867 4.44444,-0.28893 z m 231.53044,80.84449 c 0.56164,-0.91666 2.31031,-3.57258 3.88595,-5.90202 3.21583,-4.75435 6.3454,-18.35091 6.0838,-26.43131 -0.2364,-7.30236 -3.55977,-18.20195 -6.80968,-22.33352 -3.6106,-4.59013 -3.449,-4.99981 1.97232,-4.99981 3.472,0 6.00597,1.21345 9.92209,4.75144 13.30951,12.02433 13.6037,36.02965 0.60088,49.03245 -5.51748,5.51749 -18.39673,10.35709 -15.65536,5.88277 z m -79.01902,-54.32958 c 1.22192,-7.64147 6.55902,-19.02911 13.43364,-28.66303 10.23312,-14.34043 25.30649,-25.13875 45.83558,-32.83588 10.26922,-3.85031 13.12251,-4.34116 25.68266,-4.41819 13.59683,-0.0833 14.47508,0.0895 23.27721,4.58002 6.4275,3.2791 10.31586,6.33245 13.0775,10.26908 l 3.93022,5.6024 -2.22312,9.06426 c -1.22272,4.98534 -3.30658,10.56426 -4.63082,12.39759 -1.32423,1.83333 -2.79076,4.36356 -3.25895,5.62271 -0.77505,2.08448 -1.36367,1.99641 -6.57661,-0.98394 -3.14896,-1.80032 -7.03254,-3.28054 -8.63015,-3.28937 -1.59763,-0.009 -3.95698,-1.06607 -5.243,-2.3494 -1.99084,-1.98668 -4.6297,-2.29504 -17.7619,-2.07561 -25.69672,0.42938 -43.29641,7.0399 -66.52452,24.98688 -5.28334,4.08213 -9.97372,7.42206 -10.42304,7.42206 -0.44932,0 -0.43344,-2.39832 0.0353,-5.32958 z M 257.08334,624.42252 c 0.96249,-0.38516 2.11249,-0.3378 2.55556,0.1052 0.44305,0.44305 -0.34445,0.75819 -1.75,0.70029 -1.55327,-0.064 -1.8692,-0.37992 -0.80556,-0.80554 z m -8.25195,-11.8074 c -1.28664,-3.35292 -0.90708,-4.21807 0.66471,-1.51512 0.77825,1.33833 1.13413,2.71421 0.79084,3.05751 -0.34329,0.34329 -0.99829,-0.35079 -1.45555,-1.54239 z m -5.33333,-16 c -1.28664,-3.35292 -0.90708,-4.21807 0.66471,-1.51512 0.77825,1.33833 1.13413,2.71421 0.79084,3.05751 -0.3433,0.34329 -0.9983,-0.35079 -1.45555,-1.54239 z m -5.33333,-16 c -0.45727,-1.1916 -0.79336,-2.86748 -0.74687,-3.72417 0.0465,-0.85668 0.65937,-0.12054 1.36197,1.63596 0.7026,1.75646 1.0387,3.43234 0.74687,3.72417 -0.29183,0.29183 -0.90472,-0.44436 -1.36197,-1.63596 z m -3.39279,-10.72623 c 0.064,-1.55326 0.37992,-1.8692 0.80555,-0.80556 0.38516,0.9625 0.3378,2.11251 -0.1052,2.55556 -0.44307,0.44306 -0.75819,-0.34445 -0.7003,-1.75 z m -20.49568,-63.22222 c -2.67871,-8.43334 -6.68373,-21.39019 -8.90003,-28.793 -2.2163,-7.40282 -5.40037,-15.49367 -7.07569,-17.9797 -3.64559,-5.40966 -10.69036,-9.64304 -21.92332,-13.17424 -18.75115,-5.8946 -22.25992,-9.81346 -26.39747,-29.48266 C 143.19446,384.98089 139.00342,352.06704 137.85287,322 c -0.93736,-24.49592 -0.20599,-27.81955 6.76249,-30.73116 4.94238,-2.06505 23.3481,-2.59524 37.76896,-1.08796 l 8.10885,0.84753 0.76097,8.81914 c 3.28647,38.08773 14.60213,81.56052 34.08104,130.93338 4.39899,11.15004 7.99816,20.74399 7.99816,21.31987 0,0.57588 -1.35,1.23908 -3,1.47377 -2.04831,0.29135 -2.92651,1.25523 -2.76832,3.0384 0.12747,1.43643 -0.88111,3.39112 -2.2412,4.34376 -4.40215,3.08339 -6.82047,9.71047 -5.86603,16.07512 0.73828,4.92318 0.4237,6.2137 -2.0843,8.55026 -2.22938,2.07697 -2.73623,3.61024 -2.06656,6.25157 1.76888,6.977 4.6829,26.21475 4.26648,28.16632 -0.23471,1.1 -2.61843,-4.9 -5.29715,-13.33333 z m 267.16235,-34.11111 c 0.064,-1.55327 0.37992,-1.8692 0.80555,-0.80556 0.38516,0.96249 0.3378,2.11251 -0.1052,2.55556 -0.44305,0.44305 -0.75819,-0.34445 -0.70029,-1.75 z m -1.33333,-5.33333 c 0.064,-1.55327 0.37992,-1.8692 0.80555,-0.80556 0.38516,0.96249 0.3378,2.1125 -0.1052,2.55556 -0.44306,0.44305 -0.75819,-0.34446 -0.7003,-1.75 z m -2.03119,-9.29631 c -0.50198,-2.67579 -0.64604,-5.13175 -0.3201,-5.45767 0.32592,-0.32593 1.0033,1.5967 1.50528,4.2725 0.50198,2.67578 0.64604,5.13174 0.3201,5.45766 -0.32592,0.32594 -1.0033,-1.59669 -1.50528,-4.27249 z m -1.81414,-10.59259 c 0.0272,-2.2 0.326,-2.93858 0.66405,-1.64129 0.33805,1.29729 0.31583,3.09729 -0.0495,4 -0.36524,0.90271 -0.64182,-0.15871 -0.61465,-2.35871 z m -1.488,-6.77777 c 0.064,-1.55327 0.37992,-1.8692 0.80554,-0.80556 0.38516,0.96249 0.3378,2.11251 -0.1052,2.55556 -0.44305,0.44305 -0.75818,-0.34445 -0.70029,-1.75 z m -1.99416,-10 c -0.501,-3.77677 -0.64255,-7.13523 -0.31454,-7.46324 0.328,-0.32801 1.01955,2.48044 1.53676,6.24101 0.51722,3.76058 0.65876,7.11903 0.31455,7.46324 -0.34421,0.34422 -1.03576,-2.46424 -1.53677,-6.24101 z M 470.92661,418 c 0.0272,-2.2 0.326,-2.93859 0.66406,-1.64129 0.33805,1.29729 0.31582,3.09729 -0.0495,4 -0.36524,0.9027 -0.64183,-0.15871 -0.61465,-2.35871 z m 59.51586,-66.40213 c -5.2703,-2.04408 -9.20468,-4.80899 -13,-9.1358 -6.10711,-6.96234 -6.28463,-7.35096 -3.35788,-7.35096 1.14652,0 4.89652,2.60941 8.33333,5.79869 3.43681,3.18928 9.7946,7.58928 14.12839,9.77777 9.5284,4.8117 5.50298,5.41203 -6.10384,0.9103 z m 88.22421,-17.76368 c -26.82038,-5.12964 -58.87436,-18.00874 -78.60239,-31.58198 -10.03126,-6.90169 -26.0466,-23.09438 -32.80642,-33.16973 -7.56287,-11.27227 -14.59507,-26.85616 -16.71742,-37.04707 -0.8555,-4.10788 -1.27304,-13.74614 -0.9552,-22.04973 0.5019,-13.11223 1.03283,-15.75229 4.77692,-23.75323 5.40307,-11.54608 11.31087,-19.7372 16.4062,-22.74709 2.21855,-1.31053 8.33367,-6.20043 13.58919,-10.86644 5.25551,-4.66603 9.76836,-8.27079 10.02855,-8.0106 0.26018,0.26019 -1.03275,2.85844 -2.87319,5.77389 -8.00227,12.6764 -10.50752,36.36508 -5.76655,54.52614 4.54843,17.42348 22.42736,42.26317 41.46198,57.60425 12.87503,10.37673 34.94041,23.23201 47.96719,27.94564 28.3234,10.24861 58.23302,8.25209 77.38764,-5.16576 4.26084,-2.98473 8.07336,-5.1004 8.47227,-4.70151 0.3989,0.39891 -0.4,4.44183 -1.77534,8.98428 -3.0736,10.1514 -13.59964,26.44138 -19.53049,30.22515 -2.41795,1.54261 -6.71011,4.36772 -9.53814,6.27804 -8.81226,5.95261 -15.1101,7.51119 -32.19146,7.96665 -8.8,0.23464 -17.5,0.13974 -19.33334,-0.2109 z m 26.60176,-79.40491 c -0.0357,-0.23611 -0.19373,-6.12928 -0.35117,-13.09595 -0.24464,-10.82481 -0.85527,-13.90505 -4.19937,-21.18314 -2.1522,-4.68407 -6.75774,-12.1771 -10.2345,-16.65119 -7.16902,-9.22548 -6.93917,-10.41805 2.85962,-14.83669 2.89517,-1.30555 5.61782,-3.48866 6.05033,-4.85135 2.02252,-6.3724 19.24844,-0.12013 28.46096,10.33013 7.05668,8.00478 10.23812,14.06866 12.96441,24.71044 5.1949,20.27764 -4.56548,32.61592 -27.8187,35.16619 -4.21667,0.46245 -7.69588,0.64765 -7.73158,0.41156 z"
         id="path289" />
      <path
         style="fill:#061424;stroke-width:1.33333"
         d="m 645.33335,913.9092 c -49.8158,-4.07641 -88.48787,-12.38569 -130.66667,-28.07575 -6.96667,-2.59152 -13.70852,-5.26421 -14.98191,-5.93932 -1.27338,-0.6751 -2.90844,-1.22746 -3.63345,-1.22746 -0.72501,0 -10.09021,-4.2 -20.81156,-9.33334 C 464.5184,864.2 455.48197,860 455.15881,860 c -0.7538,0 -28.81003,-16.57975 -35.82547,-21.17096 -23.81094,-15.58293 -45.73016,-32.78757 -67.84333,-53.251 -32.03211,-29.64235 -54.5019,-59.18692 -72.88156,-95.82892 -8.5405,-17.02644 -7.79504,-16.41579 -20.0394,-16.41579 -13.57292,0 -22.22954,-1.93688 -29.6287,-6.62928 C 220.87034,661.5862 217.2677,653.78413 204.60406,614 180.96382,539.73177 175.50886,522.51128 170.82379,507.36059 l -4.93927,-15.97275 -9.2756,-3.46121 c -19.92968,-7.43684 -28.95179,-14.19764 -35.14408,-26.33552 -4.42978,-8.6831 -15.10533,-64.79478 -19.45353,-102.2496 C 100.90509,349.81267 100,334.39364 100,325.077 c 0,-14.36025 0.50436,-18.52312 3.31263,-27.34151 3.96673,-12.45616 10.83784,-22.05854 20.05715,-28.02988 13.32218,-8.62877 12.41072,-6.49849 8.09044,-18.90914 -2.08787,-5.99775 -3.57055,-11.06834 -3.29484,-11.26796 0.27571,-0.19964 5.35613,-1.03879 11.28982,-1.86479 12.38731,-1.72437 32.32107,-9.23229 42.24735,-15.91219 3.669,-2.46905 6.90428,-4.25581 7.18952,-3.97058 0.28523,0.28524 -2.15905,4.05121 -5.43175,8.36884 -9.08916,11.99121 -19.09321,17.74624 -34.46032,19.82397 -7.36574,0.99589 -7.907,2.68632 -2.51437,7.85279 5.46809,5.23877 14.47739,7.50678 29.81939,7.50678 14.88777,0 15.97703,-0.49818 34.36165,-15.71592 4.76667,-3.94557 14.96667,-10.26737 22.66667,-14.04844 l 14,-6.87468 32.24996,-0.0979 32.24996,-0.0979 14.07347,-13.55519 c 15.85627,-15.27232 21.56283,-18.62409 38.91239,-22.85538 20.01704,-4.88186 25.83337,-10.35378 25.84257,-24.31238 0.005,-8.30018 -0.87977,-11.77572 -2.99939,-11.77572 -0.76216,0 -4.31066,2.73592 -7.88557,6.07983 -11.2748,10.54625 -19.16924,12.12127 -35.30293,7.04325 l -9.14046,-2.8769 11.55566,-2.32538 c 15.15678,-3.05005 28.81686,-10.17432 38.74444,-20.20674 4.19838,-4.24274 7.93338,-7.71406 8.3,-7.71406 0.36661,0 0.30509,1.80739 -0.13671,4.01643 -0.60488,3.02435 0.0468,5.24739 2.63831,9 5.16988,7.48623 7.24234,13.53055 7.39249,21.56011 0.0745,3.98376 0.77965,7.64134 1.56703,8.12796 0.78737,0.48662 5.7457,0.61069 11.01852,0.27572 20.97618,-1.33263 27.83427,3.89296 41.18648,31.38248 7.27332,14.97432 8.97231,19.53852 7.59084,20.39232 -2.23944,1.38405 -2.45125,1.14824 -2.80472,-3.12262 -0.22368,-2.7027 -0.67965,-3.16165 -2.02877,-2.04197 -1.28931,1.07003 -2.45472,0.79768 -4.49752,-1.05103 -3.97996,-3.60181 -10.68295,-13.87349 -9.89034,-15.15597 0.37111,-0.60045 -0.95864,-2.16196 -2.95497,-3.47001 -1.99634,-1.30804 -4.54119,-3.43172 -5.65522,-4.71927 -1.11404,-1.28755 -4.35925,-3.88296 -7.21158,-5.76757 -4.3948,-2.9036 -6.69107,-3.4264 -15.05027,-3.4264 -8.14417,0 -12.006,0.83335 -22.14727,4.7792 -6.75568,2.62855 -16.18306,5.99615 -20.94973,7.48355 -14.10171,4.4003 -17.67189,6.89464 -32.18093,22.4833 -7.6005,8.16604 -15.61907,15.79472 -17.81907,16.9526 -3.20407,1.68635 -10.8981,2.27719 -38.66667,2.96932 -34.46179,0.85896 -34.71128,0.88608 -42.21519,4.58988 -4.15168,2.04919 -11.05168,6.54783 -15.33333,9.99698 -4.28164,3.44913 -13.05171,10.27781 -19.48901,15.17484 l -11.70419,8.90366 -13.62915,-0.005 c -7.49603,-0.003 -19.29749,-0.92463 -26.22548,-2.04817 -6.928,-1.12355 -14.2668,-1.67592 -16.30847,-1.2275 -5.11057,1.12247 -13.71554,11.30564 -15.7779,18.67168 -2.14435,7.65887 -1.08904,43.04312 2.02634,67.94268 3.38982,27.09296 11.18451,68.51695 14.22087,75.57518 4.4588,10.36474 16.13989,18.89958 32.51252,23.7554 10.42823,3.09281 10.6802,3.5469 21.883,39.43753 18.75124,60.07367 41.28332,127.82015 43.95548,132.15945 4.48934,7.29022 7.8182,8.53746 27.72783,10.3889 10.09617,0.93885 19.38852,2.13396 20.64965,2.65577 1.26114,0.52183 3.36114,3.4412 4.66667,6.48751 15.49689,36.16018 35.988,65.7124 67.21984,96.94424 65.50511,65.5051 161.66446,114.49001 260.1884,132.54358 39.0756,7.16024 49.18109,7.97462 98.96547,7.97532 39.76922,5.6e-4 50.50953,-0.442 72.66666,-2.9943 31.9373,-3.67888 57.85071,-7.89619 63.8295,-10.38802 5.64367,-2.35214 6.83717,-2.35092 6.83717,0.007 0,1.16841 -4.41928,3.40833 -11.66666,5.91328 -6.41667,2.21783 -18.26667,6.49613 -26.33334,9.50735 -11.30031,4.21832 -17.72699,5.75941 -28,6.71429 -7.33333,0.68164 -18.43333,2.17121 -24.66667,3.31017 -27.9327,5.10387 -63.82474,8.76508 -90.66667,9.24856 -15.03333,0.27078 -30.03333,0.27138 -33.33333,10e-4 z M 748.00002,790.52745 c -3.3,-0.65365 -8.70331,-1.7453 -12.00736,-2.42589 -3.30405,-0.6806 -14.14525,-5.1786 -24.09157,-9.99556 -25.30439,-12.2548 -34.02962,-14.31651 -60.22454,-14.2306 -11.54457,0.0379 -22.37095,0.4154 -24.0586,0.83897 -2.55832,0.64211 -5.17187,-1.40366 -15.7206,-12.30545 -52.18539,-53.93191 -83.36064,-109.50516 -108.53974,-193.48379 -8.50266,-28.35854 -21.19897,-79.40102 -20.3693,-81.89 0.23116,-0.6935 2.44698,7.33988 4.92406,17.85198 11.42074,48.46694 35.35962,123.31466 39.92723,124.8372 0.83381,0.27793 6.624,-1.68858 12.86707,-4.37003 9.72569,-4.17727 11.96741,-4.68781 15.65553,-3.56552 2.36747,0.72043 8.34467,1.67837 13.28267,2.12879 4.93801,0.4504 10.33801,1.36518 12,2.03284 2.92,1.17301 2.89828,1.21676 -0.64485,1.29842 -4.47444,0.1032 -4.95242,2.75119 -0.49659,2.75119 1.74353,0 3.917,0.9 4.82992,2 0.91292,1.1 3.00547,2 4.65012,2 1.64464,0 4.42117,1.09047 6.17007,2.42327 1.74889,1.3328 5.03096,3.16465 7.29348,4.07077 2.26252,0.90613 6.04956,3.41565 8.41562,5.57673 2.36608,2.16108 5.06034,3.92923 5.98724,3.92923 3.93207,0 13.3782,14.79679 17.97434,28.15569 4.29786,12.49195 4.78874,22.10894 1.61013,31.5445 -3.68872,10.94981 -3.52207,13.17916 1.56567,20.9427 5.22552,7.97382 5.57174,8.0637 37.72458,9.79252 24.62137,1.32387 31.20094,2.99487 60.94682,15.4785 16.51997,6.93302 28.2466,9.16816 43.66193,8.32212 20.18323,-1.10771 37.09151,-7.36018 51.38302,-19.00076 4.13143,-3.3651 7.70625,-5.91966 7.94407,-5.67682 1.36254,1.39142 -6.44242,20.6955 -10.72799,26.5336 -10.7789,14.68379 -35.24454,30.50347 -51.26576,33.14884 -12.29963,2.03087 -24.35555,2.53666 -30.66667,1.28656 z M 573.33335,617.48884 c 0,-0.6478 -1.2,-1.49163 -2.66667,-1.87517 -2.62093,-0.68539 -3.52579,0.4161 -1.77777,2.1641 1.29351,1.29352 4.44444,1.08867 4.44444,-0.28893 z m 231.53044,80.84449 c 0.56164,-0.91666 2.31031,-3.57258 3.88595,-5.90202 3.21583,-4.75435 6.3454,-18.35091 6.0838,-26.43131 -0.2364,-7.30236 -3.55977,-18.20195 -6.80968,-22.33352 -3.6106,-4.59013 -3.449,-4.99981 1.97232,-4.99981 3.472,0 6.00597,1.21345 9.92209,4.75144 13.30951,12.02433 13.6037,36.02965 0.60088,49.03245 -5.51748,5.51749 -18.39673,10.35709 -15.65536,5.88277 z m -79.01902,-54.32958 c 1.22192,-7.64147 6.55902,-19.02911 13.43364,-28.66303 10.23312,-14.34043 25.30649,-25.13875 45.83558,-32.83588 10.26922,-3.85031 13.12251,-4.34116 25.68266,-4.41819 13.59683,-0.0833 14.47508,0.0895 23.27721,4.58002 6.4275,3.2791 10.31586,6.33245 13.0775,10.26908 l 3.93022,5.6024 -2.22312,9.06426 c -1.22272,4.98534 -3.30658,10.56426 -4.63082,12.39759 -1.32423,1.83333 -2.79076,4.36356 -3.25895,5.62271 -0.77505,2.08448 -1.36367,1.99641 -6.57661,-0.98394 -3.14896,-1.80032 -7.03254,-3.28054 -8.63015,-3.28937 -1.59763,-0.009 -3.95698,-1.06607 -5.243,-2.3494 -1.99084,-1.98668 -4.6297,-2.29504 -17.7619,-2.07561 -25.69672,0.42938 -43.29641,7.0399 -66.52452,24.98688 -5.28334,4.08213 -9.97372,7.42206 -10.42304,7.42206 -0.44932,0 -0.43344,-2.39832 0.0353,-5.32958 z M 257.08334,624.42252 c 0.96249,-0.38516 2.11249,-0.3378 2.55556,0.1052 0.44305,0.44305 -0.34445,0.75819 -1.75,0.70029 -1.55327,-0.064 -1.8692,-0.37992 -0.80556,-0.80554 z m -8.25195,-11.8074 c -1.28664,-3.35292 -0.90708,-4.21807 0.66471,-1.51512 0.77825,1.33833 1.13413,2.71421 0.79084,3.05751 -0.34329,0.34329 -0.99829,-0.35079 -1.45555,-1.54239 z m -5.33333,-16 c -1.28664,-3.35292 -0.90708,-4.21807 0.66471,-1.51512 0.77825,1.33833 1.13413,2.71421 0.79084,3.05751 -0.3433,0.34329 -0.9983,-0.35079 -1.45555,-1.54239 z m -5.33333,-16 c -0.45727,-1.1916 -0.79336,-2.86748 -0.74687,-3.72417 0.0465,-0.85668 0.65937,-0.12054 1.36197,1.63596 0.7026,1.75646 1.0387,3.43234 0.74687,3.72417 -0.29183,0.29183 -0.90472,-0.44436 -1.36197,-1.63596 z m -3.39279,-10.72623 c 0.064,-1.55326 0.37992,-1.8692 0.80555,-0.80556 0.38516,0.9625 0.3378,2.11251 -0.1052,2.55556 -0.44307,0.44306 -0.75819,-0.34445 -0.7003,-1.75 z m -17.15641,-52.42118 c -2.2895,-6.42311 -1.91016,-9.72082 0.4835,-4.20324 1.09706,2.52878 1.80055,5.52878 1.56334,6.66666 -0.24864,1.19267 -1.11551,0.14938 -2.04684,-2.46342 z m 263.82308,-44.91215 c 0.064,-1.55327 0.37992,-1.8692 0.80555,-0.80556 0.38516,0.96249 0.3378,2.11251 -0.1052,2.55556 -0.44305,0.44305 -0.75819,-0.34445 -0.70029,-1.75 z m -1.33333,-5.33333 c 0.064,-1.55327 0.37992,-1.8692 0.80555,-0.80556 0.38516,0.96249 0.3378,2.1125 -0.1052,2.55556 -0.44306,0.44305 -0.75819,-0.34446 -0.7003,-1.75 z m -2.03119,-9.29631 c -0.50198,-2.67579 -0.64604,-5.13175 -0.3201,-5.45767 0.32592,-0.32593 1.0033,1.5967 1.50528,4.2725 0.50198,2.67578 0.64604,5.13174 0.3201,5.45766 -0.32592,0.32594 -1.0033,-1.59669 -1.50528,-4.27249 z m -1.81414,-10.59259 c 0.0272,-2.2 0.326,-2.93858 0.66405,-1.64129 0.33805,1.29729 0.31583,3.09729 -0.0495,4 -0.36524,0.90271 -0.64182,-0.15871 -0.61465,-2.35871 z m -1.488,-6.77777 c 0.064,-1.55327 0.37992,-1.8692 0.80554,-0.80556 0.38516,0.96249 0.3378,2.11251 -0.1052,2.55556 -0.44305,0.44305 -0.75818,-0.34445 -0.70029,-1.75 z m -1.17867,-7.88889 c 0.0272,-2.2 0.326,-2.93859 0.66405,-1.6413 0.33806,1.2973 0.31583,3.0973 -0.0495,4 -0.36524,0.90271 -0.64183,-0.1587 -0.61466,-2.3587 z m -1.38275,-7.33334 c 0,-1.83333 0.30264,-2.58333 0.67252,-1.66666 0.36988,0.91666 0.36988,2.41666 0,3.33333 -0.36988,0.91667 -0.67252,0.16667 -0.67252,-1.66667 z M 470.92661,418 c 0.0272,-2.2 0.326,-2.93859 0.66406,-1.64129 0.33805,1.29729 0.31582,3.09729 -0.0495,4 -0.36524,0.9027 -0.64183,-0.15871 -0.61465,-2.35871 z m 57.0734,-69.42729 c -6.62312,-3.07186 -16,-10.4632 -16,-12.61204 0,-2.29471 4.67616,-0.3571 9.07503,3.76033 2.70873,2.53544 7.59244,6.33544 10.85268,8.44444 7.32124,4.73603 5.75545,4.89837 -3.92771,0.40727 z m 90.66667,-14.73852 c -26.82038,-5.12964 -58.87436,-18.00874 -78.60239,-31.58198 -10.03126,-6.90169 -26.0466,-23.09438 -32.80642,-33.16973 -7.56287,-11.27227 -14.59507,-26.85616 -16.71742,-37.04707 -0.8555,-4.10788 -1.27304,-13.74614 -0.9552,-22.04973 0.5019,-13.11223 1.03283,-15.75229 4.77692,-23.75323 5.40167,-11.54308 11.31062,-19.73705 16.40183,-22.74452 2.21613,-1.30909 8.01345,-5.9168 12.88293,-10.23934 4.86948,-4.32255 9.03046,-7.68234 9.2466,-7.46618 0.21616,0.21615 -1.62609,4.25354 -4.09386,8.97196 -6.05395,11.57522 -7.96556,20.61204 -7.14162,33.76076 2.15044,34.31672 29.49012,69.19819 73.00863,93.14843 34.1983,18.82091 74.09783,20.29993 97.8965,3.62892 4.26084,-2.98473 8.07336,-5.1004 8.47227,-4.70151 0.3989,0.39891 -0.4,4.44183 -1.77534,8.98428 -3.0736,10.1514 -13.59964,26.44138 -19.53049,30.22515 -2.41795,1.54261 -6.71011,4.36772 -9.53814,6.27804 -8.81226,5.95261 -15.1101,7.51119 -32.19146,7.96665 -8.8,0.23464 -17.5,0.13974 -19.33334,-0.2109 z m 25.98707,-92.68186 c -0.012,-10.97817 -0.48597,-13.51393 -3.93093,-21.00214 -2.15492,-4.68407 -6.76266,-12.1771 -10.23942,-16.65119 -7.16902,-9.22548 -6.93917,-10.41805 2.85962,-14.83669 2.89517,-1.30555 5.62933,-3.52491 6.0759,-4.93194 1.01304,-3.19181 5.95326,-2.43196 16.34106,2.51343 8.49848,4.04593 17.55992,14.79011 21.7223,25.7562 9.11004,24.00103 0.27703,39.51991 -23.3548,41.03247 l -9.4608,0.60553 -0.0133,-12.48567 z m -406.35182,-51.819 c -2.68987,-5.82137 -4.96859,-14.20448 -4.96859,-18.27874 0,-7.00552 3.03233,-4.74446 4.99004,3.72085 1.71727,7.42561 1.70127,18.28617 -0.0215,14.55789 z"
         id="path287" />
      <path
         style="fill:#ffffff;stroke-width:0.783646"
         d="m 407.72276,406.25315 c -10.11053,-5.00465 -13.67051,-13.05485 -40.16964,-90.83577 -13.96689,-40.99599 -18.51455,-53.59241 -21.03719,-58.27022 -1.12912,-2.09376 -4.47369,-6.04809 -7.43239,-8.78739 -4.97285,-4.6041 -5.29687,-5.09845 -4.28688,-6.54042 2.54404,-3.63213 22.76152,-24.32808 26.59589,-27.22531 2.29798,-1.73634 6.47031,-4.0629 9.27185,-5.17013 6.31487,-2.49577 37.30308,-11.92296 42.94317,-13.06411 5.76909,-1.16725 14.60523,-1.04973 17.61862,0.23432 3.5775,1.52442 9.34477,7.52276 13.93794,14.49638 8.22407,12.48624 23.45597,45.13608 23.45597,50.27828 0,2.78697 -1.54258,8.60123 -2.27907,8.59021 -0.69928,-0.0104 -9.85147,-15.78207 -18.86791,-32.51436 -9.44721,-17.53167 -14.17932,-24.80382 -18.3059,-28.1319 -2.98567,-2.40793 -3.09734,-2.4302 -12.14651,-2.42216 -9.59465,0.009 -20.96747,1.87802 -24.21832,3.98106 -1.22508,0.79253 -1.76537,1.91243 -1.77031,3.66943 -0.0119,4.24042 17.29749,110.00878 24.58833,150.24599 2.77243,15.30068 5.28681,29.79793 5.58751,32.2161 1.16624,9.37872 -4.86597,13.51644 -13.48516,9.25 z"
         id="path543"
         transform="translate(-6.2691683,-3.1345829)" />
      <path
         style="fill:#ffffff;stroke-width:0.783646"
         d="m 471.20557,613.79046 c -0.88328,-0.96976 -1.96303,-2.46848 -2.39945,-3.33049 -1.38871,-2.74302 -7.69812,-22.65326 -16.2657,-51.32879 -4.57149,-15.30069 -10.56215,-35.1051 -13.31258,-44.00982 -7.29069,-23.60413 -9.20941,-31.06179 -9.30916,-36.18265 -0.0797,-4.09042 0.14198,-4.7697 2.10969,-6.46508 6.0791,-5.23775 15.01175,0.99045 18.53137,12.92081 0.8385,2.84226 4.38808,18.03912 7.88796,33.77081 3.49987,15.73168 9.51259,41.91221 13.3616,58.17896 3.84901,16.26673 6.9982,30.75169 6.9982,32.18877 0,1.71801 -0.62119,3.19647 -1.81371,4.31679 -2.30699,2.1673 -3.77386,2.15227 -5.78822,-0.0593 z"
         id="path545"
         transform="translate(-6.2691683,-3.1345829)" />
      <path
         style="fill:#ffffff;stroke-width:0.783646"
         d="m 576.36444,433.03354 c 1.55615,-8.55022 15.27835,-37.51166 22.18075,-46.81366 8.45004,-11.38767 17.92146,-19.68593 28.63563,-25.08872 8.55905,-4.31603 8.74811,-3.25843 1.00373,5.61501 -15.35062,17.5886 -24.17833,34.20614 -31.10829,58.55921 -1.95681,6.87658 -1.07387,6.28272 -13.1278,8.82963 l -8.09583,1.7106 z"
         id="path547"
         transform="translate(-6.2691683,-3.1345829)" />
      <path
         style="fill:#ffffff;stroke-width:0.783646"
         d="m 650.95802,584.6394 c -10.12829,-3.57424 -15.68504,-7.60086 -29.15464,-21.12649 -14.23361,-14.29282 -29.36726,-32.55251 -29.36726,-35.43343 0,-0.28636 4.49616,3.85723 9.99148,9.20798 16.50624,16.07202 26.04971,23.26801 38.91887,29.34571 10.86872,5.13295 17.71791,6.71556 31.0215,7.16799 17.68975,0.6016 26.42793,-1.28068 54.07155,-11.64749 7.9736,-2.99022 17.26598,-6.14439 20.64975,-7.00926 6.65379,-1.70067 16.1816,-2.85163 16.1816,-1.95475 0,3.02349 -71.1906,27.30562 -93.21177,31.79325 -9.88189,2.0138 -12.55756,1.96568 -19.10108,-0.34351 z"
         id="path549"
         transform="translate(-6.2691683,-3.1345829)" />
    </g>
  </g>
</svg>
